<svg width="392" height="264" viewBox="0 0 392 264" fill="none" xmlns="http://www.w3.org/2000/svg">
<path d="M190.128 260.481L7.70249 152.668C1.89669 149.42 -3.08696 144.051 2.57674 140.539L185.652 34.9789C188.403 33.2737 192.575 32.1572 195.366 33.7812L386.805 144.964C392.611 148.334 393.656 157.753 387.82 161.133L214.174 260.309C210.526 262.425 206.391 263.554 202.174 263.584C197.957 263.614 193.806 262.545 190.128 260.481Z" fill="#112588"/>
<path d="M160.775 148.649L116.439 175.039L202.075 222.693L242.401 195.826L213.981 179.251L218.264 159.134L195.315 147.146L186.982 157.54L160.775 148.649Z" fill="url(#paint0_linear_203_272)"/>
<path d="M132.365 89.0784C131.837 90.4892 132.365 180.591 132.365 180.591C132.365 180.591 132.791 182.225 135.816 180.885V90.4791L132.365 89.0784Z" fill="#CCCCCC"/>
<path d="M239.346 119.427C238.818 120.838 239.346 210.939 239.346 210.939C239.346 210.939 239.772 212.573 242.797 211.234V120.827L239.346 119.427Z" fill="#CCCCCC"/>
<path d="M194.595 159.083C194.706 159.654 194.692 160.243 194.551 160.807C194.411 161.372 194.149 161.899 193.782 162.351C192.544 163.681 187.835 167.853 187.388 168.756C186.941 169.659 186.312 172.126 187.388 172.978C188.464 173.831 190.555 173.932 193.113 172.978C196.656 171.354 199.976 169.28 202.989 166.807C204.125 165.569 202.989 152.851 202.989 152.851C202.989 152.851 196.381 151.237 194.158 152.851L194.595 159.083Z" fill="#F96156"/>
<path d="M186.85 170.481C186.725 170.901 186.706 171.346 186.797 171.775C186.887 172.204 187.083 172.604 187.368 172.938C188.444 173.79 190.534 173.892 193.092 172.938C196.636 171.314 199.955 169.239 202.968 166.766C203.361 165.862 203.528 164.877 203.455 163.894C199.203 167.984 190.149 174.795 186.85 170.481Z" fill="#391A3A"/>
<path d="M197.305 163.924C196.912 163.334 196.364 162.863 195.721 162.564C194.968 162.308 194.166 162.225 193.376 162.321C192.727 162.321 192.727 163.336 193.376 163.336C193.936 163.214 194.518 163.252 195.057 163.446C195.595 163.64 196.068 163.981 196.421 164.432C196.817 164.949 197.7 164.442 197.305 163.924Z" fill="#391A3A"/>
<path d="M195.863 165.66C195.342 165.043 194.665 164.577 193.903 164.31C193.141 164.042 192.322 163.983 191.529 164.137C190.89 164.269 191.164 165.244 191.803 165.152C192.422 165.047 193.058 165.109 193.646 165.332C194.233 165.555 194.75 165.931 195.143 166.421C195.589 166.878 196.3 166.157 195.863 165.66Z" fill="#391A3A"/>
<path d="M210.266 166.858C210.378 167.429 210.363 168.017 210.223 168.582C210.083 169.147 209.82 169.674 209.454 170.126C208.216 171.456 203.506 175.627 203.06 176.531C202.613 177.434 201.984 179.9 203.06 180.753C204.135 181.606 206.226 181.707 208.784 180.753C212.328 179.129 215.647 177.055 218.66 174.582C219.797 173.343 218.66 160.625 218.66 160.625C218.66 160.625 212.052 159.012 209.83 160.625L210.266 166.858Z" fill="#F96156"/>
<path d="M202.552 178.266C202.427 178.686 202.408 179.131 202.499 179.56C202.589 179.989 202.785 180.389 203.07 180.723C204.146 181.575 206.237 181.677 208.794 180.723C212.338 179.099 215.657 177.024 218.67 174.551C219.063 173.647 219.23 172.662 219.157 171.679C214.864 175.81 205.82 182.6 202.552 178.266Z" fill="#391A3A"/>
<path d="M212.976 171.75C212.583 171.16 212.035 170.689 211.393 170.39C210.639 170.134 209.838 170.05 209.048 170.146C208.398 170.146 208.398 171.161 209.048 171.161C209.607 171.039 210.19 171.077 210.728 171.271C211.267 171.465 211.74 171.807 212.093 172.257C212.489 172.765 213.372 172.227 212.976 171.75Z" fill="#391A3A"/>
<path d="M211.535 173.455C211.013 172.839 210.337 172.372 209.575 172.105C208.813 171.837 207.993 171.778 207.201 171.933C206.561 172.065 206.835 173.039 207.475 172.948C208.094 172.842 208.73 172.904 209.317 173.127C209.904 173.35 210.421 173.726 210.814 174.216C211.21 174.663 211.971 173.942 211.535 173.455Z" fill="#391A3A"/>
<path d="M195.924 80.2478C192.393 88.328 190.446 97.0113 190.189 105.826C189.966 119.813 191.62 157.398 191.62 157.398C191.62 157.398 195.498 161.123 204.014 159.814V107.653C204.014 107.653 206.988 108.759 206.988 110.972C206.988 113.185 209.708 166.533 209.708 166.533C209.708 166.533 211.23 169.365 222.375 165.041C222.375 165.041 223.897 95.1988 215.717 81.4861" fill="#5B434D"/>
<path d="M212.783 135.981C212.255 137.392 212.783 227.494 212.783 227.494C212.783 227.494 213.21 229.128 216.234 227.788V137.372L212.783 135.981Z" fill="#CCCCCC"/>
<path d="M159.587 73.2949C159.059 74.7058 159.587 164.807 159.587 164.807C159.587 164.807 160.013 166.441 163.038 165.102V74.655L159.587 73.2949Z" fill="#CCCCCC"/>
<path d="M162.297 106.506L133.786 123.121V119.853L159.516 104.892L162.297 106.506Z" fill="#CCCCCC"/>
<path d="M129.675 85.8201V89.2406L216.387 139.412L245.101 122.36V119.234" fill="#68E1FD"/>
<path opacity="0.27" d="M129.675 85.8201V89.2406L216.387 139.412L245.101 122.36V119.234" fill="black"/>
<path d="M129.675 85.82L158.227 69.5293L245.101 119.234L216.082 135.971L129.675 85.82Z" fill="#68E1FD"/>
<path d="M135.065 119.112L213.382 164.269V167.71L134.831 122.512L135.065 119.112Z" fill="#CCCCCC"/>
<path d="M190.118 112.058L209.596 100.619L178.628 83.2114L160.521 94.6606L190.118 112.058Z" fill="#5B434D"/>
<path d="M242.898 152.14L214.387 168.756V165.487L240.117 150.526L242.898 152.14Z" fill="#CCCCCC"/>
<path d="M195.132 83.5566C200.461 85.4039 205.902 85.5054 211.474 85.1806C213.689 82.8579 215.55 80.2209 216.996 77.3549C221.756 67.5094 223.471 50.9649 223.471 50.9649C223.471 50.9649 216.366 45.4738 211.657 44.1543C206.947 42.8348 196.543 45.1693 194.838 48.0214C193.133 50.8736 192.504 63.7032 194.838 81.9427C194.899 82.2574 195.082 83.2419 195.132 83.5566Z" fill="#FBB03B"/>
<path d="M203.74 46.2452C202.075 46.6004 201.76 41.9923 202.471 41.566C203.181 41.1397 210.977 41.089 212.174 41.6269C214.803 42.7942 212.174 46.7019 212.174 46.7019" fill="#FBB03B"/>
<path d="M213.747 26.9805C212.245 26.7166 212.296 24.2095 209.505 23.0727C206.713 21.9359 203.415 23.5701 202.197 24.4531C200.979 25.3362 200.086 23.5396 198.746 24.92C197.406 26.3004 198.259 28.4116 197.477 29.1627L197.365 29.2439C197.027 29.8119 196.84 30.4567 196.82 31.1174C196.801 31.778 196.95 32.4328 197.254 33.0197C197.866 33.84 198.587 34.574 199.395 35.202L211.91 41.7284C213.423 40.6627 216.315 30.5634 216.153 29.3556C216.093 28.7407 215.82 28.1663 215.38 27.7323C214.941 27.2983 214.363 27.0322 213.747 26.9805Z" fill="#200904"/>
<path d="M200.045 30.8072C199.477 31.4162 201.354 43.4947 205.018 43.921C208.683 44.3473 213.017 39.4956 213.402 38.0543C213.788 36.613 213.565 28.9193 212.073 28.1479C210.581 27.3765 203.455 27.1024 200.045 30.8072Z" fill="#F67770"/>
<path d="M210.987 35.2529C210.987 35.2529 212.367 32.8778 213.433 34.0045C214.499 35.1311 213.727 37.7803 212.286 38.6126" fill="#F67770"/>
<path d="M177.715 85.343C177.715 85.343 174.142 88.1647 173.198 88.7331C172.254 89.3015 177.258 90.9255 177.34 91.4838C177.421 92.042 182.232 87.6978 182.232 87.6978L177.715 85.343Z" fill="#F67770"/>
<path d="M190.118 112.058L182.485 92.4887L152.898 75.0002L160.521 94.6608L190.118 112.058Z" fill="#6F97DD"/>
<path d="M194.828 48.0112C194.828 48.0112 192.94 50.772 192.006 58.0699C191.072 65.3677 188.545 71.681 187.063 73.9749C185.581 76.2688 175.746 85.4749 176.152 86.3478C176.558 87.2207 179.197 88.8853 180.912 89.4943C185.71 86.4822 190 82.7273 193.62 78.3699C198.695 71.9043 198.522 60.445 198.522 60.445" fill="#FBB03B"/>
<path d="M197.771 104.557C197.789 103.787 197.947 103.027 198.238 102.314C198.505 101.944 198.852 101.639 199.253 101.421C199.741 101.113 200.209 100.774 200.654 100.406L204.105 96.7518L198.898 95.9702C197.751 96.7318 196.565 97.4331 195.346 98.0713C195.112 98.0713 191.793 100.101 191.956 100.609C192.118 101.116 194.351 99.4111 194.351 99.4111C193.108 99.9654 191.914 100.621 190.778 101.37C190.372 101.847 189.844 104.273 190.21 104.608C190.575 104.943 191.144 104.608 191.519 104.425C191.895 104.242 191.265 105.44 191.844 105.633C192.278 105.785 192.734 105.864 193.194 105.866C193.418 105.984 193.674 106.029 193.925 105.994C194.176 105.96 194.41 105.847 194.595 105.674C195.273 104.85 195.777 103.897 196.076 102.872C196.076 102.872 195.944 105.785 196.777 105.592C197.071 105.481 197.416 105.075 197.771 104.557Z" fill="#F67770"/>
<path d="M194.107 100.264C193.475 100.543 192.895 100.927 192.392 101.4C191.752 102.21 191.357 103.185 191.255 104.212C191.194 104.496 191.651 104.557 191.702 104.273C191.78 103.253 192.202 102.29 192.899 101.543C193.407 101.138 193.963 100.797 194.554 100.528C194.393 100.461 194.243 100.372 194.107 100.264Z" fill="#5B434D"/>
<path d="M195.335 100.771C194.833 101.138 194.37 101.556 193.955 102.019C193.265 102.902 193.194 104.506 192.94 105.562C192.869 105.846 193.326 105.907 193.387 105.623C193.701 104.313 193.803 102.831 194.797 101.867C195.163 101.512 195.549 101.167 195.944 100.852C195.74 100.837 195.537 100.81 195.335 100.771Z" fill="#5B434D"/>
<path d="M223.085 51.3303C223.085 51.3303 225.115 51.7667 224.852 59.1458C224.588 66.5248 222.761 81.1611 219.411 84.7136C216.062 88.2661 200.695 100.954 200.695 100.954C200.695 100.954 195.934 98.9237 196.31 97.1271C196.685 95.3306 212.956 79.2732 212.956 79.2732C212.956 79.2732 215.422 46.6511 223.085 51.3303Z" fill="#FBB03B"/>
<path d="M195.488 54.0099L194.351 83.8306C194.351 84.4802 195.366 84.4802 195.366 83.8306L196.503 54.0099C196.533 53.3095 195.518 53.3095 195.488 54.0099Z" fill="#F67770"/>
<path d="M213.027 61.5008L211.464 71.0824C210.936 74.3304 210.814 78.1164 209.21 81.0599C207.607 84.0034 205.15 86.277 203.06 88.7028L196.147 96.8228C195.721 97.3202 196.442 98.0408 196.868 97.5435L204.105 89.0581C206.135 86.683 208.571 84.3485 210.083 81.5978C211.596 78.8472 211.789 75.4063 212.286 72.341L214.001 61.7952C214.113 61.1151 213.139 60.8614 213.027 61.5008Z" fill="#F67770"/>
<path d="M69.5261 60.7801L60.8783 55.8979L16.675 81.5876L17.9742 137.463L26.0333 142.518" fill="#F2F2F2"/>
<path d="M26.0334 86.7133V142.518L69.5262 118.838V60.78L26.0334 86.7133Z" fill="#68E1FD"/>
<path d="M80.275 78.6847L72.764 74.4521L34.3767 96.7619L35.5135 145.289L42.5069 149.674" fill="#F2F2F2"/>
<path d="M42.5068 101.207V149.674L80.275 129.11V78.6846L42.5068 101.207Z" fill="#68E1FD"/>
<path d="M120.875 56.8011C122.184 56.8011 124.935 53.4719 125.798 52.4772C127.306 50.8108 128.558 48.9294 129.513 46.8947C134.821 35.4049 127.706 19.9871 114.481 19.0736C113.544 19.0197 112.605 19.0197 111.669 19.0736C102.981 19.4796 96.3628 28.1274 95.5609 36.3286C95.2216 40.4515 95.945 44.5926 97.662 48.3563C98.4877 50.1443 99.5984 51.7863 100.951 53.2182C101.895 54.2332 104.716 57.2782 106.168 57.2782L120.875 56.8011Z" fill="#FBB03B"/>
<path d="M114.683 19.094C123.818 28.4523 123.118 44.1036 119.048 56.8418H120.824C122.134 56.8418 124.884 53.5126 125.747 52.5179C127.255 50.8515 128.507 48.9701 129.462 46.9354C134.74 35.4761 127.747 20.1902 114.683 19.094Z" fill="#E29127"/>
<path d="M116.632 57.6538L117.911 40.1755C118.074 37.9831 117.789 35.4354 119.129 33.4866C121.545 29.9849 125.747 33.8216 123.433 36.7042C121.119 39.5868 115.394 39.3939 112.095 39.2518C102.96 38.8661 101.296 34.5422 103.285 32.8776C104.432 31.9235 106.066 32.2889 107.233 32.9994C108.989 34.0652 108.918 36.1865 109.091 37.9831C109.263 39.7796 109.406 41.4544 109.558 43.19C109.889 46.8982 110.228 50.6198 110.573 54.355L110.867 57.6842" stroke="#F2F2F2" stroke-width="3.045" stroke-miterlimit="10"/>
<path d="M104.757 61.7139H121.87C123.327 61.7139 124.509 60.5323 124.509 59.0749C124.509 57.6174 123.327 56.4359 121.87 56.4359H104.757C103.299 56.4359 102.118 57.6174 102.118 59.0749C102.118 60.5323 103.299 61.7139 104.757 61.7139Z" fill="#CCCCCC"/>
<path d="M104.757 66.9919H121.87C123.327 66.9919 124.509 65.8104 124.509 64.3529C124.509 62.8955 123.327 61.7139 121.87 61.7139H104.757C103.299 61.7139 102.118 62.8955 102.118 64.3529C102.118 65.8104 103.299 66.9919 104.757 66.9919Z" fill="#CCCCCC"/>
<path d="M121.89 56.4358H119.17C119.779 58.1714 118.733 61.1149 117.251 62.3126C112.983 62.9472 108.63 62.6775 104.473 61.5209C104.398 61.5034 104.32 61.5155 104.254 61.5547C104.188 61.594 104.14 61.6573 104.121 61.7313C104.101 61.8052 104.111 61.8839 104.148 61.9508C104.185 62.0176 104.247 62.0673 104.32 62.0893C109.923 63.6438 115.846 63.6157 121.433 62.0081C121.489 61.995 121.539 61.9642 121.575 61.9202C121.612 61.8763 121.633 61.8217 121.636 61.7645H121.89C122.59 61.7645 123.261 61.4865 123.756 60.9916C124.251 60.4967 124.529 59.8254 124.529 59.1255C124.529 58.4256 124.251 57.7544 123.756 57.2595C123.261 56.7646 122.59 56.4865 121.89 56.4865V56.4358Z" fill="#B2AFAB"/>
<path d="M103.397 66.6062C106.696 68.256 110.358 69.045 114.044 68.9001C120.499 68.758 123.24 66.6062 123.24 66.6062" fill="#CCCCCC"/>
<path d="M121.89 61.7139H118.104C119.525 63.0334 118.307 66.9818 117.272 68.6464L118.053 68.5855C119.515 68.5855 124.458 67.3675 124.529 64.353C124.532 64.0056 124.465 63.6613 124.334 63.3399C124.202 63.0185 124.008 62.7265 123.762 62.4809C123.516 62.2353 123.224 62.041 122.903 61.9093C122.582 61.7777 122.237 61.7112 121.89 61.7139Z" fill="#B2AFAB"/>
<path d="M113.323 102.7C121.491 102.7 128.112 100.432 128.112 97.6347C128.112 94.8374 121.491 92.5698 113.323 92.5698C105.156 92.5698 98.5349 94.8374 98.5349 97.6347C98.5349 100.432 105.156 102.7 113.323 102.7Z" fill="#0D1735"/>
<path d="M64.908 87.85V112.058L68.9375 106.627L72.3378 109.52V83.8103L64.908 87.85Z" fill="#112588"/>
<path d="M72.3376 83.8103L69.1404 81.7397L62.2485 85.82L64.9078 87.85L72.3376 83.8103Z" fill="#112588"/>
<path d="M316.091 43.0248L297.6 29.2621L287.407 24.8798L286.205 19.0385C289.231 17.1705 291.095 13.8485 291.095 10.2841C291.095 4.6145 286.483 0 280.806 0C275.134 0 270.518 4.61449 270.518 10.2841C270.518 14.1161 272.684 17.6603 276.073 19.4222L275.099 25.3393L267.179 29.1611H266.689L265.78 29.8376L264.487 30.4586L264.532 30.7666L225 39.2787L229.591 45.12L265.992 41.4294L266.533 71.1863L269.614 141.221L269.23 152.591L279.008 153L277.872 141.237L282.993 82.8437L290.63 141.62L291.009 152.253H300.09L298.166 69.8534L297.984 65.4863L297.933 64.3151L296.948 64.9613L296.999 66.1376L297.155 69.8534L295.342 107.163V107.198L298.994 151.243H291.983L291.64 141.565L282.604 75.7452L276.861 141.196L276.856 141.242L277.892 151.94L270.275 151.622L270.619 141.242L267.543 71.1358L266.972 39.5766L229.813 43.767L226.434 39.4705L265.618 31.2159L265.598 31.0443L266.265 30.7262L267.023 30.1709H267.411L276.008 26.0209L277.104 19.3768L277.498 18.983L276.851 18.675C273.619 17.1503 271.528 13.8586 271.528 10.2842C271.528 5.16985 275.69 1.00974 280.806 1.00974C285.923 1.00974 290.084 5.16984 290.084 10.2842C290.084 13.6112 288.286 16.701 285.392 18.3519L285.074 18.5337L286.529 25.6018L297.044 30.1052L315.429 43.7922L316.343 44.4737L316.919 44.1961L317 43.7013L316.091 43.0248ZM295.847 38.6981L296.554 55.5606L296.605 56.7773L297.59 56.0453L297.539 54.8286L296.943 40.6267L307.373 47.508L308.51 48.2552L309.565 47.7453L308.585 47.099L295.847 38.6981ZM295.847 38.6981L296.554 55.5606L297.539 54.8286L296.943 40.6267L307.373 47.508L307.6 47.3364H308.09L308.585 47.099L295.847 38.6981Z" fill="#29ABE2"/>
<path d="M372.175 100.53L311.173 54.3045L310.654 53.4211L309.152 3.51461C308.195 3.53491 311.911 1.80368 315.663 4.58076L365.14 41.1653C367.543 42.9422 369.085 45.6635 369.375 48.6284L373.967 95.6512C374.338 99.4741 371.472 102.119 372.175 100.53Z" fill="#6C63FF"/>
<path d="M355.42 51.6616L376.174 33.4328L382.023 28.2956C382.756 27.6516 381.682 26.5848 380.953 27.2255L360.199 45.4543L354.35 50.5915C353.617 51.2354 354.691 52.3023 355.42 51.6616Z" fill="#29ABE2"/>
<path d="M367.302 30.0872L374.903 28.6318L378.827 27.8807C379.553 27.7416 381.313 27.0426 381.506 28.1571C381.679 29.1474 381.265 30.3495 381.099 31.3197L380.447 35.14L379.123 42.904C378.959 43.8642 380.467 43.9926 380.63 43.0375C381.387 38.601 382.151 34.1656 382.901 29.7278C383.164 28.1697 383.016 26.2022 381.021 26.0447C380.01 25.9649 378.926 26.3204 377.942 26.5089L374.631 27.1427L367.03 28.5981C366.075 28.7809 366.342 30.271 367.302 30.0872Z" fill="#29ABE2"/>
<path d="M345.033 38.8328L344.255 39.4744L362.288 61.3608L363.067 60.7192L345.033 38.8328Z" fill="#29ABE2"/>
<path d="M316.039 42.8496L315.959 43.3393L315.379 43.617L316.291 44.2985L316.866 44.0208L316.947 43.5261L316.039 42.8496ZM308.052 47.1611H307.563L307.336 47.3328L306.655 47.8376L305.364 48.4586L305.409 48.7666L297.518 54.6534L296.534 55.3854L273 72.9296L277.584 78.7709L282.551 75.4892L296.978 65.9624L296.928 64.786L277.806 77.4178L274.432 73.1214L296.585 56.6021L297.568 55.8701L306.494 49.2159L306.473 49.0443L307.139 48.7262L307.895 48.1709H308.284L308.47 48.08L309.524 47.5701L308.546 46.9238L308.052 47.1611ZM361 84.7939L338.424 47.2621L328.248 42.8798L327.048 37.0385C330.068 35.1705 331.929 31.8485 331.929 28.2841C331.929 22.6145 327.325 18 321.657 18C315.994 18 311.385 22.6145 311.385 28.2841C311.385 32.1161 313.548 35.6603 316.932 37.4222L316.039 42.8496L315.959 43.3393L315.379 43.617L308.546 46.9238L308.052 47.1611H307.563L307.336 47.3328L306.655 47.8376L305.364 48.4586L305.409 48.7666L297.518 54.6534L296.534 55.3854L273 72.9296L277.584 78.7709L282.551 75.4892L296.978 65.9624L297.961 65.3111L306.867 59.4294L307.406 89.1863L310.482 159.221L310.099 170.591L319.862 171L318.727 159.237L323.84 100.844L331.465 159.62L331.843 170.253H340.91L338.989 87.8534L337.768 58.6267L356.411 90.6352L361 84.7939ZM336.674 56.6981L337.98 87.8534L336.17 125.163V125.198L339.816 169.243H332.816L332.473 159.565L329.942 126.238L323.452 93.7452L317.719 159.196L317.713 159.242L318.747 169.94L311.143 169.622L311.486 159.242V124.784L308.415 89.1358L307.845 57.5765L297.911 64.1398L296.928 64.786L277.806 77.4178L274.432 73.1214L296.585 56.6021L297.568 55.8701L306.494 49.2159L306.473 49.0443L307.139 48.7262L307.895 48.1709H308.284L308.47 48.08L309.524 47.5701L316.291 44.2985L316.866 44.0208L316.947 43.5261L317.961 37.3768L318.354 36.983L317.708 36.675C314.481 35.1503 312.393 31.8586 312.393 28.2841C312.393 23.1698 316.549 19.0097 321.657 19.0097C326.765 19.0097 330.92 23.1698 330.92 28.2841C330.92 31.6112 329.125 34.701 326.236 36.3519L325.918 36.5337L327.37 43.6018L337.869 48.1052L359.568 84.9858L356.194 89.2822L336.674 56.6981ZM308.546 46.9238L308.052 47.1611H307.563L307.336 47.3328L306.655 47.8376L305.364 48.4586L305.409 48.7666L297.518 54.6534L296.534 55.3854L296.585 56.6021L297.568 55.8701L306.494 49.2159L306.473 49.0443L307.139 48.7262L307.895 48.1709H308.284L308.47 48.08L309.524 47.5701L308.546 46.9238Z" fill="#29ABE2"/>
<defs>
<linearGradient id="paint0_linear_203_272" x1="173.422" y1="196.567" x2="219.107" y2="111.977" gradientUnits="userSpaceOnUse">
<stop stop-color="#112588"/>
<stop offset="1"/>
</linearGradient>
</defs>
</svg>
