<svg width="326" height="249" viewBox="0 0 326 249" fill="none" xmlns="http://www.w3.org/2000/svg">
<path d="M167.64 245.717L319.088 156.204C323.91 153.494 328.051 149.099 323.341 146.135L171.355 58.5404C169.071 57.1296 165.61 56.2059 163.296 57.5254L4.30655 149.819C-0.514703 152.621 -1.37746 160.436 3.44379 163.238L147.655 245.574C150.686 247.335 154.124 248.275 157.629 248.3C161.134 248.325 164.585 247.434 167.64 245.717Z" fill="#FFB3A6"/>
<path opacity="0.32" d="M291.481 157.574L260.147 176.341L243.847 163.491L271.911 146.216" fill="url(#paint0_linear_160_132)"/>
<path opacity="0.32" d="M164.342 230.096L147.056 242.418L54.0212 186.867L71.7228 175.966" fill="url(#paint1_linear_160_132)"/>
<path d="M64.1307 180.99L97.4125 162.111C97.7048 161.945 98.0354 161.857 98.3717 161.857C98.708 161.857 99.0386 161.945 99.3309 162.111L187.362 212.455C187.653 212.622 187.896 212.861 188.067 213.15C188.238 213.439 188.331 213.767 188.337 214.102C188.344 214.438 188.263 214.769 188.102 215.064C187.942 215.359 187.708 215.607 187.423 215.784L155.054 235.912C154.749 236.099 154.398 236.199 154.039 236.199C153.681 236.199 153.33 236.099 153.024 235.912L64.1205 184.309C63.8353 184.136 63.5996 183.891 63.4365 183.6C63.2733 183.309 63.1881 182.98 63.1891 182.647C63.1901 182.313 63.2773 181.985 63.4423 181.695C63.6072 181.404 63.8444 181.162 64.1307 180.99Z" fill="#E2E2E2"/>
<path d="M188.336 214.17V212.526L187.149 213.856L188.336 214.17Z" fill="#E2E2E2"/>
<path d="M63.1461 182.512C63.1461 182.401 63.1461 181.274 63.1461 181.274L64.3235 182.512H63.1461Z" fill="#E2E2E2"/>
<path opacity="0.32" d="M53.9502 163.41L35.3148 174.778L17.2072 163.958L34.9088 153.067" fill="url(#paint2_linear_160_132)"/>
<path d="M199.928 37.875C199.029 37.6144 198.226 37.0987 197.616 36.3907C197.005 35.6826 196.613 34.8126 196.487 33.886C196.091 30.6685 198.801 26.4968 205.703 26.8927C212.605 27.2885 225.171 32.3127 219.07 63.3413C219.07 63.3413 204.099 56.5916 198.375 50.8974C198.405 50.9177 198.182 40.6967 199.928 37.875Z" fill="#4E2200"/>
<path opacity="0.32" d="M243.227 142.46L163.205 191.252L85.4558 144.836L161.479 98.0339" fill="url(#paint3_linear_160_132)"/>
<path d="M212.016 117.197V153.392H214.696L215.274 116.263" fill="#808080"/>
<path d="M227.251 103.271L232.621 142.633H229.931L224.328 104.733" fill="#808080"/>
<path d="M176.887 125.388C176.887 125.388 174.593 132.899 174.086 133.66C173.578 134.422 166.067 139.385 166.199 140.918C166.331 142.45 169.163 143.08 170.919 142.948C172.675 142.816 182.865 138.573 183.495 137.325C184.124 136.076 184.134 125.388 184.134 125.388H176.887Z" fill="#5C2D1D"/>
<path d="M188.955 134.168C188.955 134.168 186.661 141.679 186.154 142.44C185.646 143.201 178.135 148.165 178.267 149.697C178.399 151.23 181.231 151.859 182.987 151.727C184.743 151.596 194.934 147.353 195.563 146.104C196.192 144.856 196.202 134.168 196.202 134.168H188.955Z" fill="#5C2D1D"/>
<path d="M228.713 65.8584C228.002 67.8884 223.993 98.0339 223.993 98.0339L219.933 96.684L225.191 65.696" fill="#808080"/>
<path d="M227.251 103.272L227.332 98.4097L223.019 99.8814L224.328 104.733" fill="#A9CBF8"/>
<path d="M217.528 95.73C217.528 95.73 228.337 99.8813 227.251 103.962C226.165 108.042 217.538 118.04 212.026 117.157C206.515 116.274 199.755 111.483 199.755 111.483" fill="#4A42A4"/>
<path d="M217.528 90.7769C217.528 90.7769 228.337 94.9282 227.251 99.0085C226.165 103.089 217.538 113.087 212.026 112.203C206.515 111.32 199.755 106.53 199.755 106.53" fill="#A6ACED"/>
<path d="M221.801 52.8665C221.801 52.8665 232.245 55.475 233.301 61.4838C234.356 67.4926 234.661 78.5764 219.842 74.2728C205.023 69.9692 212.016 58.8347 212.016 58.8347" fill="#A6ACED"/>
<path d="M208.728 65.696C208.728 65.696 212.108 79.906 209.6 87.5084C207.093 95.1107 192.843 101.201 192.843 101.201L186.834 131.773C184.37 132.474 181.792 132.68 179.249 132.378C176.705 132.077 174.246 131.274 172.015 130.017C172.015 130.017 173.68 103.038 176.207 96.1866C178.734 89.3354 198.334 75.8866 198.334 75.8866" fill="#5C2D1D"/>
<path d="M209.306 83.763C209.306 83.763 189.706 97.2118 187.179 104.063C184.652 110.914 182.987 137.893 182.987 137.893C185.22 139.152 187.68 139.955 190.226 140.257C192.771 140.558 195.351 140.352 197.816 139.649L203.825 109.077C203.825 109.077 213.975 106.164 216.523 98.5617C219.07 90.9594 217.995 79.4087 217.995 79.4087" fill="#5C2D1D"/>
<path d="M219.953 51.0092C215.274 45.2541 205.408 45.9342 205.408 45.9342C205.408 45.9342 199.674 42.5035 194.883 46.5635C193.431 47.7916 192.965 51.2528 192.985 55.6985C193.258 57.4303 193.81 59.1064 194.619 60.6618C195.918 63.2095 197.309 65.6353 197.715 68.5078C198.212 71.9994 197.715 75.1865 195.228 77.6428C201.369 83.1745 208.24 87.2041 217 85.6207C220.633 76.8308 222.207 53.7903 219.953 51.0092Z" fill="#FFE9C7"/>
<path d="M203.044 86.4732C199.511 89.9953 195.736 93.3854 192.457 97.1409C189.605 100.399 188.488 104.54 187.382 108.641C184.804 118.192 183.657 128.048 182.51 137.842C182.439 138.441 183.373 138.431 183.444 137.842C184.54 128.413 185.657 118.943 188.052 109.737C189.229 105.22 190.407 100.734 193.634 97.2221C196.862 93.7102 200.344 90.4825 203.703 87.133C203.785 87.0443 203.829 86.9275 203.827 86.807C203.824 86.6865 203.775 86.5716 203.69 86.4864C203.605 86.4011 203.49 86.3522 203.369 86.3497C203.249 86.3473 203.132 86.3915 203.044 86.4732Z" fill="#5C2D1D"/>
<path d="M199.319 81.7533C200.191 75.9983 201.491 70.2737 201.48 64.4374C201.48 57.8196 199.694 51.2424 201.288 44.6652C200.144 44.519 198.982 44.6142 197.877 44.9446C196.772 45.275 195.749 45.8333 194.873 46.5836C193.421 47.8117 192.954 51.2729 192.975 55.7186C193.248 57.4504 193.8 59.1266 194.609 60.6819C195.908 63.2296 197.299 65.6554 197.705 68.5279C198.202 72.0195 197.705 75.2066 195.218 77.6629C196.568 78.9418 197.877 80.7789 199.319 81.7533Z" fill="#FF7351"/>
<path d="M219.953 51.009C218.115 48.9126 215.672 47.4374 212.96 46.7866C212.036 54.186 211.57 61.6259 210.829 69.0354C210.27 74.6281 210.078 80.2715 209.57 85.8743C212.04 86.2188 214.549 86.1606 217 85.7017C220.634 76.8306 222.207 53.7901 219.953 51.009Z" fill="#FF7351"/>
<path d="M243.867 113.797L245.897 112.701L154.618 60.4485L95.2709 94.1059L96.0727 94.5728V138.999C96.0888 139.105 96.1422 139.201 96.2232 139.271C96.3042 139.341 96.4074 139.379 96.5142 139.379C96.6211 139.379 96.7243 139.341 96.8053 139.271C96.8863 139.201 96.9397 139.105 96.9558 138.999V95.0904L184.723 146.368L184.936 146.246V178.239C184.952 178.345 185.005 178.441 185.086 178.511C185.167 178.58 185.271 178.619 185.377 178.619C185.484 178.619 185.588 178.58 185.669 178.511C185.75 178.441 185.803 178.345 185.819 178.239V145.759L243.227 114.142V142.42C243.243 142.525 243.297 142.622 243.378 142.691C243.459 142.761 243.562 142.799 243.669 142.799C243.776 142.799 243.879 142.761 243.96 142.691C244.041 142.622 244.094 142.525 244.11 142.42V114.183C244.115 114.101 244.093 114.02 244.05 113.951C244.006 113.882 243.942 113.828 243.867 113.797Z" fill="#68E1FD"/>
<path opacity="0.15" d="M243.867 113.797L245.897 112.701L154.618 60.4485L95.2709 94.1059L96.0727 94.5728V138.999C96.0888 139.105 96.1422 139.201 96.2232 139.271C96.3042 139.341 96.4074 139.379 96.5142 139.379C96.6211 139.379 96.7243 139.341 96.8053 139.271C96.8863 139.201 96.9397 139.105 96.9558 138.999V95.0904L184.723 146.368L184.936 146.246V178.239C184.952 178.345 185.005 178.441 185.086 178.511C185.167 178.58 185.271 178.619 185.377 178.619C185.484 178.619 185.588 178.58 185.669 178.511C185.75 178.441 185.803 178.345 185.819 178.239V145.759L243.227 114.142V142.42C243.243 142.525 243.297 142.622 243.378 142.691C243.459 142.761 243.562 142.799 243.669 142.799C243.776 142.799 243.879 142.761 243.96 142.691C244.041 142.622 244.094 142.525 244.11 142.42V114.183C244.115 114.101 244.093 114.02 244.05 113.951C244.006 113.882 243.942 113.828 243.867 113.797Z" fill="black"/>
<path opacity="0.32" d="M152.334 92.4617L123.671 108.428C128.461 111.473 147.736 121.826 152.365 125.084L181.992 106.124L177.09 94.2684L152.334 92.4617Z" fill="url(#paint4_linear_160_132)"/>
<path d="M180.612 106.905L201.48 94.7454L174.289 79.1042L152.963 90.0865" fill="#B3B3B3"/>
<path d="M175.212 82.9106C175.212 82.9106 180.693 107.2 180.612 106.905C180.531 106.611 153.583 92.1268 153.4 91.6091C153.217 91.0915 146.295 66.4473 146.295 66.4473L175.212 82.9106Z" fill="white"/>
<path d="M169.011 79.3784L181.109 69.9795L186.245 74.2932L174.837 82.6974L169.011 79.3784Z" fill="#FFE0CE"/>
<path d="M194.345 47.2739C194.345 47.2739 180.876 68.3758 177.841 71.0046C177.342 71.4093 176.812 71.7758 176.258 72.1008C178.642 74.2335 180.695 76.7103 182.348 79.4494C183.731 78.3644 185.027 77.1733 186.225 75.8868C188.803 72.8418 196.517 62.367 196.517 62.367L194.345 47.2739Z" fill="#FF7351"/>
<path d="M204.241 42.8688C204.241 44.7669 204.241 46.6649 204.19 48.563C204.536 49.4359 205.013 50.0347 205.703 49.9637C207.966 49.7201 210.656 46.3401 210.656 46.3401L211.306 39.022L204.241 42.8688Z" fill="#F9C7AF"/>
<path d="M199.501 34.83C199.785 36.0277 200.283 46.9491 205.409 45.995C210.534 45.0409 211.306 39.0524 211.306 39.0524C211.306 39.0524 207.743 38.0374 207.743 36.2815C207.743 31.3892 198.649 31.2369 199.501 34.83Z" fill="#FFE0CE"/>
<path d="M195.989 63.4125L195.258 52.3083L191.909 68.3758L195.989 63.4125Z" fill="#895851"/>
<path d="M196.314 88.7569C194.333 89.6886 192.423 90.764 190.6 91.9744C189.236 92.7172 188.102 93.8195 187.321 95.1615C187.098 95.6487 186.144 97.4453 186.641 97.9528C187.139 98.4603 188.255 97.9528 188.255 97.9528C188.255 97.9528 188.194 98.9678 188.549 99.2215C188.905 99.4753 189.981 98.6227 189.981 98.6227C189.981 98.6227 190.468 99.8813 191.148 99.5768C191.828 99.2723 193.036 97.4859 193.036 97.4859C193.036 97.4859 192.904 98.8663 193.503 98.8663C194.101 98.8663 196.639 95.3645 196.639 95.3645L207.956 88.3204C207.956 88.3204 207.195 84.8796 207.033 84.7273C206.292 84.0473 207.317 83.9965 206.363 83.6311C206.007 83.4992 205.094 84.1183 204.8 84.2604C203.785 84.7882 202.698 85.3465 201.663 85.9149C199.948 86.8385 198.304 87.7723 196.588 88.6249L196.314 88.7569Z" fill="#FFE0CE"/>
<path d="M195.36 93.294C194.146 94.6065 193.235 96.1691 192.691 97.8717C192.62 98.0848 192.954 98.1762 193.026 97.963C193.554 96.3162 194.438 94.8055 195.614 93.5376C195.786 93.3752 195.543 93.1316 195.36 93.294Z" fill="#5C2D1D"/>
<path d="M193.817 92.2486C191.87 94.0085 190.492 96.3091 189.859 98.8563C189.847 98.9007 189.853 98.9481 189.875 98.9881C189.898 99.0281 189.936 99.0573 189.981 99.0694C190.025 99.0815 190.072 99.0755 190.112 99.0527C190.152 99.0298 190.182 98.9921 190.194 98.9476C190.815 96.4579 192.165 94.2102 194.071 92.4922C194.223 92.34 193.98 92.0964 193.817 92.2486Z" fill="#5C2D1D"/>
<path d="M192.224 91.8831C190.314 93.5207 188.886 95.6469 188.093 98.034C188.022 98.2471 188.356 98.3283 188.428 98.1253C189.211 95.794 190.614 93.7201 192.488 92.1267C192.63 91.9846 192.386 91.741 192.224 91.8831Z" fill="#5C2D1D"/>
<path d="M206.434 80.0481C206.281 80.6977 203.318 82.6567 200.232 84.5446C203.555 85.9502 206.29 88.4599 207.976 91.6496C211.509 89.8327 215.081 87.7723 216.452 86.331C219.334 83.1845 220.288 70.0098 220.288 70.0098L206.434 80.0481Z" fill="#FF7351"/>
<path d="M198.912 35.7436C198.912 35.7436 202.455 37.5807 209.834 36.2612C209.834 36.2612 208.393 30.5975 202.516 30.09C196.639 29.5825 198.912 35.7436 198.912 35.7436Z" fill="#4E2200"/>
<path d="M266.187 148.246V152.154H294.86V148.246" fill="#002A40"/>
<path d="M280.529 160.558C288.444 160.558 294.86 156.795 294.86 152.154C294.86 147.512 288.444 143.75 280.529 143.75C272.613 143.75 266.197 147.512 266.197 152.154C266.197 156.795 272.613 160.558 280.529 160.558Z" fill="#002A40"/>
<path d="M280.529 156.65C288.444 156.65 294.86 152.888 294.86 148.246C294.86 143.604 288.444 139.842 280.529 139.842C272.613 139.842 266.197 143.604 266.197 148.246C266.197 152.888 272.613 156.65 280.529 156.65Z" fill="#434F54"/>
<path d="M283.492 149.657V68.5583H277.575V149.362C278.476 149.853 279.476 150.135 280.5 150.186C281.525 150.237 282.547 150.056 283.492 149.657Z" fill="#002A40"/>
<path d="M263.933 92.6342C263.933 92.6342 278.458 104.134 287.898 104.814C297.337 105.494 299.134 101.881 298.809 96.9987C298.484 92.1165 296.2 87.8637 293.439 84.301C290.679 80.7384 288.882 75.6735 295.063 66.234C301.245 56.7945 305.477 53.2116 301.58 46.5329C297.682 39.8542 281.391 31.724 276.022 34.4848C270.653 37.2456 274.398 39.6918 271.302 43.6198C268.207 47.5479 264.624 50.735 269.455 56.1449C274.286 61.5549 263.284 72.933 263.933 92.6342Z" fill="#002A40"/>
<path d="M293.642 39.3568C292.643 35.2999 292.643 31.0611 293.642 27.0042C295.327 20.4575 286.081 23.8273 281.97 27.0042C277.859 30.1812 282.63 33.2465 280.843 39.3568" fill="#002A40"/>
<path d="M281.026 33.6831C276.682 37.1747 273.748 43.7519 271.779 48.1164C266.796 59.19 265.395 71.3701 262.218 83.002C262.817 83.3572 263.426 83.7023 264.035 84.017C266.572 74.882 267.922 65.3917 270.805 56.3278C272.361 51.3916 274.486 46.6535 277.139 42.2091C278.39 39.9235 279.899 37.7884 281.635 35.8451C281.412 35.1244 281.219 34.4038 281.026 33.6831Z" fill="#FF7351"/>
<path d="M292.8 33.0132C292.8 34.2041 292.773 35.3917 292.719 36.5758C293.077 37.3772 293.26 38.2457 293.257 39.1235C293.257 44.1477 288.334 49.3953 285.837 53.5669C283.574 57.2922 281.582 61.1762 279.879 65.1887C276.58 73.126 275.119 81.5099 276.469 89.975L278.62 90.452C275.961 75.9984 282.437 62.6207 289.999 50.6843C293.074 45.8326 298.514 36.992 292.8 33.0132Z" fill="#FF7351"/>
<path d="M69.1346 22.2034L69.906 64.742C69.9156 65.1929 70.0389 65.634 70.2643 66.0245C70.4898 66.4151 70.8101 66.7424 71.1958 66.9762C71.5814 67.21 72.0197 67.3427 72.4703 67.362C72.9208 67.3813 73.369 67.2866 73.7731 67.0867L109.927 49.04C110.527 48.7407 111.029 48.2776 111.376 47.7046C111.722 47.1315 111.899 46.4718 111.886 45.8021L111.115 3.28376C111.107 2.7922 110.974 2.31079 110.728 1.88495C110.483 1.45912 110.132 1.10292 109.711 0.849981C109.289 0.597046 108.81 0.455722 108.319 0.439349C107.828 0.422976 107.34 0.532098 106.903 0.756409L71.0631 19.0264C70.4789 19.3254 69.9893 19.7807 69.6488 20.3417C69.3082 20.9026 69.1302 21.5472 69.1346 22.2034Z" fill="#68E1FD"/>
<path d="M93.2003 23.188C91.8402 30.8512 89.1403 46.7157 81.203 41.8031C80.1169 43.4778 78.9192 45.2845 78.158 46.1473C76.6152 47.9946 77.2343 52.7854 82.7864 51.8617C86.4298 51.2198 89.8378 49.6227 92.6623 47.2333C93.4337 46.6142 97.443 32.1098 98.2144 31.6429C98.9858 31.176 97.443 45.0714 98.2144 44.6045C98.9858 44.1376 102.274 42.5745 102.274 42.5745V28.2427C102.274 28.2427 102.051 22.2745 101.747 20.4678C99.2436 22.2283 96.2604 23.1779 93.2003 23.188Z" fill="#002A40"/>
<path d="M64.1307 179.63L97.4125 160.751C97.7048 160.584 98.0353 160.497 98.3717 160.497C98.708 160.497 99.0386 160.584 99.3309 160.751L187.362 211.095C187.653 211.262 187.896 211.501 188.067 211.79C188.238 212.078 188.331 212.407 188.337 212.742C188.344 213.078 188.263 213.409 188.102 213.704C187.942 213.999 187.708 214.247 187.423 214.424L155.054 234.551C154.749 234.739 154.398 234.838 154.039 234.838C153.681 234.838 153.33 234.739 153.024 234.551L64.1205 183.02C63.8186 182.851 63.5673 182.605 63.3928 182.306C63.2182 182.008 63.1267 181.668 63.1278 181.322C63.1288 180.976 63.2223 180.637 63.3987 180.339C63.575 180.042 63.8277 179.797 64.1307 179.63Z" fill="white"/>
<path d="M161.134 219.337V220.382H168.787V219.337" fill="#434F54"/>
<path d="M164.961 222.625C167.074 222.625 168.787 221.621 168.787 220.382C168.787 219.143 167.074 218.139 164.961 218.139C162.847 218.139 161.134 219.143 161.134 220.382C161.134 221.621 162.847 222.625 164.961 222.625Z" fill="#434F54"/>
<path d="M164.961 221.58C167.074 221.58 168.787 220.576 168.787 219.337C168.787 218.098 167.074 217.094 164.961 217.094C162.847 217.094 161.134 218.098 161.134 219.337C161.134 220.576 162.847 221.58 164.961 221.58Z" fill="#728489"/>
<path d="M68.962 181.569L86.2678 191.556L116.86 173.743L99.6252 163.918L68.962 181.569Z" fill="#68E1FD"/>
<path d="M88.2471 192.51L105.553 202.498L136.074 184.725L118.91 174.859L88.2471 192.51Z" fill="#68E1FD"/>
<path d="M107.349 203.482L124.655 213.47L155.217 195.677L138.002 185.832L107.349 203.482Z" fill="#68E1FD"/>
<path d="M126.614 214.526L143.92 224.513L174.502 206.7L157.277 196.875L126.614 214.526Z" fill="#68E1FD"/>
<g style="mix-blend-mode:multiply">
<path d="M68.962 181.569L86.2678 191.556L116.86 173.743L99.6252 163.918L68.962 181.569Z" fill="#68E1FD"/>
<path d="M88.247 192.51L105.553 202.498L136.074 184.725L118.91 174.859L88.247 192.51Z" fill="#68E1FD"/>
<path d="M107.349 203.482L124.655 213.47L155.217 195.677L138.002 185.832L107.349 203.482Z" fill="#68E1FD"/>
<path d="M126.614 214.526L143.92 224.513L174.502 206.7L157.277 196.875L126.614 214.526Z" fill="#68E1FD"/>
<g opacity="0.38">
<path d="M88.3384 192.51L105.634 202.498L136.155 184.725L118.991 174.859L88.3384 192.51Z" fill="#E0E0E0"/>
<path d="M107.431 203.482L124.736 213.47L155.298 195.677L138.094 185.832L107.431 203.482Z" fill="#B3B3B3"/>
<path d="M126.705 214.526L144.001 224.513L174.583 206.7L157.358 196.875L126.705 214.526Z" fill="#808080"/>
</g>
</g>
<path d="M33.8634 140.674C33.8634 140.674 31.4476 161.451 42.4401 165.471C53.4325 169.49 59.35 159.035 59.4819 140.674" fill="#06577A"/>
<path d="M46.6726 148.074C53.747 148.074 59.4819 144.761 59.4819 140.674C59.4819 136.588 53.747 133.275 46.6726 133.275C39.5983 133.275 33.8633 136.588 33.8633 140.674C33.8633 144.761 39.5983 148.074 46.6726 148.074Z" fill="#F2696A"/>
<path d="M49.9511 124.211C49.9511 124.211 44.8761 116.954 47.1193 111.94C47.1193 111.94 48.926 108.712 51.4939 108.204C51.4939 108.204 51.2402 115.086 53.798 114.203C56.3558 113.32 53.798 107.007 53.798 107.007C53.798 107.007 56.4877 103.363 59.4312 103.474C62.3747 103.586 59.4312 109.91 61.4612 108.864C63.4912 107.819 61.5932 102.439 63.8972 101.759C66.007 101.278 68.1467 100.939 70.3019 100.744C70.3019 100.744 72.4841 107.017 70.3019 107.92C68.1196 108.824 64.9224 109.118 66.455 110.508C67.9877 111.899 72.3522 110.305 72.3522 110.305C72.3522 110.305 72.6262 113.838 71.1443 115.38C69.6624 116.923 60.9943 113.533 62.4864 116.568C63.9784 119.603 69.7842 118.08 69.7842 118.08C69.7842 118.08 66.8407 122.293 63.3796 124.17C59.9184 126.048 49.9511 124.211 49.9511 124.211Z" fill="#8CCC00"/>
<path d="M51.1285 142.42C51.1285 142.42 47.4948 138.837 48.2053 135.751C48.5624 134.665 49.3018 133.745 50.2861 133.163C50.2861 133.163 50.8748 137.101 52.2349 136.32C53.595 135.538 51.4635 132.26 51.4635 132.26C51.4635 132.26 52.6003 129.905 54.2852 129.651C55.9701 129.398 54.9754 133.305 56.0208 132.493C57.0663 131.681 55.4118 128.829 56.6501 128.22C57.7945 127.719 58.9711 127.295 60.1722 126.951C60.1722 126.951 62.0804 130.281 60.9334 131.011C59.7865 131.742 58.0102 132.27 59.0252 132.889C60.0402 133.508 62.3443 132.138 62.3443 132.138C62.3443 132.138 62.8721 134.117 62.2022 135.183C61.5323 136.249 56.2238 135.183 57.4114 136.777C58.5989 138.37 61.715 136.858 61.715 136.858C60.9921 138.421 59.9795 139.833 58.7309 141.019C57.0054 142.42 51.1285 142.42 51.1285 142.42Z" fill="#8CCC00"/>
<path d="M37.7812 134.625C37.7812 134.625 28.9609 134.97 25.9057 130.423C25.9057 130.423 24.1599 127.165 25.1039 124.729C25.1039 124.729 30.7676 128.646 31.407 126.007C32.0465 123.368 25.317 122.14 25.317 122.14C25.317 122.14 23.693 117.918 25.3678 115.492C27.0425 113.066 30.7981 118.953 31.0112 116.659C31.2244 114.365 25.6621 113.097 26.3625 110.813C27.0748 108.776 27.9225 106.789 28.9 104.865C28.9 104.865 35.3655 106.398 34.99 108.722C34.6144 111.046 33.1123 113.909 35.1118 113.35C37.1114 112.792 38.106 108.275 38.106 108.275C38.106 108.275 41.2322 109.94 41.7296 111.97C42.2269 114 34.6956 119.572 38.0756 119.907C41.4555 120.242 43.2724 114.558 43.2724 114.558C43.2724 114.558 45.2415 119.308 44.9979 123.257C44.7543 127.205 37.7812 134.625 37.7812 134.625Z" fill="#8CCC00"/>
<path d="M68.4038 103.556C67.47 104.347 66.5294 105.152 65.5821 105.971C65.6836 104.956 65.7952 103.941 65.9576 102.987C66.0388 102.459 65.237 102.236 65.1558 102.764C64.946 104.117 64.787 105.454 64.6787 106.773C62.2021 108.945 59.7458 111.209 57.4621 113.614C57.2669 111.93 57.2159 110.232 57.3098 108.539C57.3098 108.001 56.508 108.001 56.4775 108.539C56.3692 110.505 56.4508 112.476 56.7212 114.426C55.2771 116.001 53.9217 117.654 52.6612 119.379C51.2294 117.398 50.2552 115.124 49.809 112.721C49.7075 112.193 48.9056 112.416 49.0071 112.944C49.4659 115.514 50.5076 117.945 52.0521 120.049C52.0761 120.076 52.1034 120.1 52.1333 120.12C48.271 125.272 46.0402 131.462 45.7287 137.893C45.7287 138.431 46.5407 138.431 46.561 137.893C46.8456 131.695 48.9653 125.721 52.651 120.729C56.0175 121.625 59.5072 121.968 62.9837 121.744C63.5115 121.744 63.5216 120.871 62.9837 120.912C59.6849 121.128 56.3726 120.824 53.1687 120.009C54.9358 117.623 56.8763 115.37 58.9744 113.269H59.0455C60.9943 113.442 62.9329 113.614 64.8919 113.685C66.1154 113.864 67.3644 113.721 68.5154 113.269C68.9925 113.025 68.5763 112.305 68.0993 112.548C66.7493 113.228 64.8716 112.863 63.4303 112.782C62.192 112.711 60.9638 112.599 59.7255 112.498C62.6995 109.554 65.8866 106.814 68.962 104.215C69.4086 103.789 68.8098 103.21 68.4038 103.556Z" fill="#06577A"/>
<path d="M42.572 119.775C42.6017 119.669 42.5878 119.555 42.5336 119.459C42.5067 119.412 42.4707 119.37 42.4277 119.336C42.3847 119.302 42.3354 119.277 42.2828 119.263C42.1764 119.233 42.0627 119.247 41.9666 119.301C41.8704 119.356 41.7998 119.446 41.7702 119.552C40.8696 122.629 38.9921 125.33 36.4211 127.246C35.4738 124.627 34.6111 121.978 33.8329 119.298C35.8455 117.294 37.5001 114.959 38.7252 112.396C38.9586 111.919 38.238 111.493 38.0045 111.98C36.8767 114.337 35.3755 116.497 33.5588 118.375C32.6859 115.33 31.9145 112.214 31.2751 109.077C31.1634 108.549 30.3616 108.773 30.4732 109.301C31.3597 113.584 32.4525 117.806 33.7517 121.968C32.181 121.662 30.6539 121.164 29.2045 120.486C28.7173 120.263 28.3011 120.973 28.7883 121.207C30.4572 122 32.2259 122.563 34.046 122.881C34.9291 125.622 35.9136 128.332 36.9692 131.001C34.4757 130.923 32.0184 130.383 29.7221 129.408C29.2349 129.205 28.8086 129.915 29.306 130.128C31.8356 131.215 34.5517 131.801 37.3042 131.854C38.6575 135.197 40.1293 138.485 41.7194 141.72C41.963 142.197 42.6837 141.781 42.4401 141.304C40.2935 137.014 38.3858 132.609 36.7256 128.109C39.5469 126.058 41.6041 123.126 42.572 119.775Z" fill="#06577A"/>
<path d="M57.6651 130.555L55.3712 134.401C55.0891 134.027 54.8443 133.626 54.6404 133.204C54.4069 132.716 53.6863 133.143 53.9197 133.62C54.1824 134.162 54.5059 134.673 54.884 135.142L52.4378 139.375C52.1571 139.105 51.9779 138.746 51.9303 138.36C51.8694 137.832 51.027 137.832 51.098 138.36C51.1722 139.027 51.4991 139.641 52.0115 140.075L48.9056 145.292C48.8527 145.388 48.8394 145.5 48.8685 145.605C48.8977 145.71 48.9669 145.8 49.0614 145.855C49.1559 145.909 49.2681 145.924 49.3737 145.897C49.4794 145.87 49.5701 145.802 49.6263 145.708L53.6863 138.827C54.3751 138.838 55.0611 138.735 55.7163 138.522C56.2238 138.36 56.0106 137.507 55.493 137.72C55.0745 137.852 54.6417 137.934 54.2039 137.964L58.3553 131.001C58.3955 130.911 58.402 130.809 58.3737 130.714C58.3454 130.619 58.2842 130.537 58.201 130.483C58.1177 130.429 58.0181 130.407 57.9198 130.42C57.8216 130.433 57.7313 130.481 57.6651 130.555Z" fill="#06577A"/>
<defs>
<linearGradient id="paint0_linear_160_132" x1="275.596" y1="155.25" x2="259.254" y2="166.141" gradientUnits="userSpaceOnUse">
<stop stop-color="#E0584E"/>
<stop offset="1" stop-color="#FFB3A6"/>
</linearGradient>
<linearGradient id="paint1_linear_160_132" x1="109.481" y1="207.938" x2="105.583" y2="214.921" gradientUnits="userSpaceOnUse">
<stop stop-color="#E0584E"/>
<stop offset="1" stop-color="#FFB3A6"/>
</linearGradient>
<linearGradient id="paint2_linear_160_132" x1="37.9639" y1="161.878" x2="30.0977" y2="167.836" gradientUnits="userSpaceOnUse">
<stop stop-color="#E0584E"/>
<stop offset="1" stop-color="#FFB3A6"/>
</linearGradient>
<linearGradient id="paint3_linear_160_132" x1="170.452" y1="138.319" x2="129.04" y2="174.423" gradientUnits="userSpaceOnUse">
<stop stop-color="#E0584E"/>
<stop offset="1" stop-color="#FFB3A6"/>
</linearGradient>
<linearGradient id="paint4_linear_160_132" x1="147.543" y1="113.584" x2="169.122" y2="87.7927" gradientUnits="userSpaceOnUse">
<stop stop-opacity="0"/>
<stop offset="0.99" stop-color="#1A1A1A"/>
</linearGradient>
</defs>
</svg>
