<svg width="376" height="274" viewBox="0 0 376 274" fill="none" xmlns="http://www.w3.org/2000/svg">
<path d="M182.428 270.369L7.33001 166.889C1.75766 163.763 -3.02299 158.617 2.40726 155.257L178.144 53.9808C180.783 52.3467 184.782 51.2809 187.462 52.8339L371.248 159.48C376.82 162.718 377.825 171.761 372.263 174.999L205.509 270.206C202.007 272.237 198.037 273.32 193.99 273.349C189.942 273.377 185.957 272.35 182.428 270.369Z" fill="#E75D48"/>
<path opacity="0.32" d="M312.124 160.089C298.767 167.874 289.226 173.112 268.682 184.835C284.232 194.284 297.823 201.217 299.569 202.252L344.229 176.877C340.605 175.02 328.75 168.311 312.124 160.089Z" fill="url(#paint0_linear_203_271)"/>
<path opacity="0.32" d="M138.265 182.287C122.167 191.676 110.667 197.979 85.9113 212.108C104.648 223.496 121.03 231.86 123.142 233.098L176.937 202.557C172.623 200.283 158.342 192.194 138.265 182.287Z" fill="url(#paint1_linear_203_271)"/>
<path opacity="0.32" d="M202.809 210.352C219.171 201.542 257.893 182.064 274.133 173.051L180.672 114.576L113.235 160.363C130.348 169.315 179.129 195.705 202.809 210.352Z" fill="url(#paint2_linear_203_271)"/>
<path d="M123.933 111.775C124.004 133.425 124.126 152.913 124.126 152.913C124.126 152.913 124.583 154.679 127.841 153.238V110.476C126.542 110.912 125.243 111.328 123.933 111.775Z" fill="#5B434D"/>
<path d="M214.461 164.393C214.532 186.043 214.654 205.531 214.654 205.531C214.654 205.531 215.111 207.297 218.369 205.855V163.134C217.07 163.54 215.77 163.987 214.461 164.393Z" fill="#5B434D"/>
<path d="M270.215 131.588C270.286 153.238 270.408 172.726 270.408 172.726C270.408 172.726 270.865 174.492 274.123 173.05V130.329C272.834 130.755 271.534 131.182 270.215 131.588Z" fill="#5B434D"/>
<path d="M123.172 110.476V114.16L216.593 168.209L274.042 130.481L274.133 126.361" fill="#A5DD73"/>
<path opacity="0.76" d="M123.172 110.476V114.16L216.593 168.209L274.042 130.481L274.133 126.361" fill="#6DB720"/>
<path d="M123.172 110.476L183.28 76.1892L274.133 126.361L216.268 164.515L123.172 110.476Z" fill="#A5DD73"/>
<path d="M206.585 92.6321L193.928 98.7221C193.45 98.9511 193.044 99.306 192.753 99.7486C192.462 100.191 192.297 100.705 192.276 101.234C192.255 101.763 192.379 102.288 192.634 102.752C192.89 103.216 193.267 103.602 193.725 103.868L223.738 121.377C224.387 121.755 225.157 121.868 225.887 121.692C226.617 121.516 227.251 121.065 227.656 120.433L234.944 109.095" fill="#56403D"/>
<path d="M270.215 60.1826L166.817 0.632583C166.305 0.328619 165.722 0.166118 165.126 0.161713C164.531 0.157308 163.945 0.311155 163.429 0.60751C162.913 0.903865 162.484 1.33209 162.188 1.84834C161.892 2.36459 161.738 2.95034 161.742 3.54563V66.8106C161.743 67.2655 161.864 67.7121 162.092 68.1057C162.32 68.4994 162.647 68.8263 163.041 69.0537L273.057 132.562C273.247 132.673 273.464 132.732 273.684 132.732C273.904 132.733 274.121 132.675 274.311 132.565C274.502 132.454 274.66 132.296 274.77 132.104C274.879 131.913 274.936 131.697 274.935 131.476V68.465C274.941 66.7923 274.509 65.147 273.681 63.6937C272.852 62.2403 271.657 61.0297 270.215 60.1826Z" fill="#68E1FD"/>
<path d="M168.613 6.21509L266.52 62.5476C267.566 63.149 268.435 64.0155 269.039 65.0598C269.643 66.104 269.961 67.2891 269.961 68.4955V113.866C269.962 114.301 269.849 114.729 269.632 115.107C269.415 115.484 269.103 115.798 268.726 116.016C268.349 116.234 267.922 116.349 267.486 116.35C267.051 116.35 266.623 116.235 266.246 116.018L166.401 58.7312C166.028 58.5169 165.717 58.2079 165.502 57.8355C165.286 57.463 165.173 57.0402 165.173 56.6098V8.24509C165.168 7.83994 165.27 7.44075 165.469 7.08778C165.668 6.73481 165.957 6.44054 166.306 6.23466C166.655 6.02877 167.052 5.91856 167.457 5.91512C167.862 5.91169 168.261 6.01516 168.613 6.21509Z" fill="#200A52"/>
<path d="M210.852 91.6126C211.43 91.5013 211.898 91.4066 211.896 91.4011C211.895 91.3956 211.426 91.4814 210.848 91.5927C210.27 91.704 209.802 91.7987 209.803 91.8042C209.804 91.8097 210.274 91.7239 210.852 91.6126Z" fill="#AB643C"/>
<path d="M262.531 65.1155C263.12 65.1155 263.597 64.5974 263.597 63.9584C263.597 63.3193 263.12 62.8013 262.531 62.8013C261.943 62.8013 261.466 63.3193 261.466 63.9584C261.466 64.5974 261.943 65.1155 262.531 65.1155Z" fill="#659FE4"/>
<path d="M259.131 63.4204C259.72 63.4204 260.197 62.9023 260.197 62.2633C260.197 61.6243 259.72 61.1062 259.131 61.1062C258.543 61.1062 258.065 61.6243 258.065 62.2633C258.065 62.9023 258.543 63.4204 259.131 63.4204Z" fill="#C5E9FF"/>
<path d="M170.664 18.7502L230.701 52.8644" stroke="#00A99D" stroke-width="4.06" stroke-miterlimit="10"/>
<path d="M183.473 35.0613L237.512 64.7703" stroke="#29ABE2" stroke-width="4.06" stroke-miterlimit="10"/>
<path d="M170.664 35.8125L191.41 47.2516" stroke="#F7931E" stroke-width="4.06" stroke-miterlimit="10"/>
<path d="M194.851 49.4236L240.354 73.7633" stroke="#00A99D" stroke-width="4.06" stroke-miterlimit="10"/>
<path d="M306.329 56.5997V100.245C306.33 101.105 306.104 101.951 305.672 102.696C305.239 103.44 304.617 104.056 303.869 104.482C303.121 104.907 302.273 105.126 301.412 105.116C300.551 105.107 299.709 104.869 298.97 104.426L257.446 79.6605C256.722 79.2292 256.122 78.617 255.705 77.8838C255.289 77.1507 255.07 76.3218 255.071 75.4787V32.6051C255.07 31.7507 255.295 30.9113 255.722 30.1712C256.148 29.4312 256.763 28.8167 257.503 28.3896C258.243 27.9625 259.082 27.738 259.936 27.7385C260.791 27.7391 261.63 27.9648 262.369 28.3928L303.893 52.3671C304.636 52.7951 305.253 53.412 305.681 54.1554C306.108 54.8987 306.332 55.742 306.329 56.5997Z" fill="#A5DD73"/>
<path d="M276.691 51.6667L263.232 61.563L275.3 78.5034" stroke="#006837" stroke-width="4.06" stroke-miterlimit="10"/>
<path d="M288.597 58.8123L298.503 78.1582L284.577 84.6542" stroke="#006837" stroke-width="4.06" stroke-miterlimit="10"/>
<path d="M171.527 98.8033L149.714 111.268C149.487 111.4 149.298 111.589 149.166 111.817C149.035 112.045 148.966 112.304 148.966 112.567C148.966 112.83 149.035 113.088 149.166 113.316C149.298 113.544 149.487 113.734 149.714 113.866L210.33 148.711C211.065 149.134 211.898 149.357 212.746 149.357C213.594 149.357 214.427 149.134 215.161 148.711L235.573 136.927C235.811 136.79 236.009 136.592 236.147 136.354C236.284 136.117 236.357 135.847 236.357 135.572C236.357 135.297 236.284 135.027 236.147 134.789C236.009 134.551 235.811 134.354 235.573 134.217L174.267 98.8033C173.851 98.5598 173.378 98.4314 172.897 98.4314C172.415 98.4314 171.942 98.5598 171.527 98.8033Z" fill="#200A52"/>
<path d="M204.484 118.677L198.262 122.372L202.88 125.051L209.132 121.377L204.484 118.677Z" fill="white"/>
<path d="M197.663 114.708L191.441 118.403L197.297 121.803L203.55 118.129L197.663 114.708Z" fill="white"/>
<path d="M172.876 100.316L166.553 103.949L172.176 107.218L178.428 103.543L172.876 100.316Z" fill="white"/>
<path d="M186.203 108.06L179.981 111.775L184.6 114.455L190.852 110.78L186.203 108.06Z" fill="white"/>
<path d="M179.383 104.092L173.161 107.786L179.007 111.186C179.697 110.791 183.615 108.476 185.259 107.512L179.383 104.092Z" fill="white"/>
<path d="M210.076 121.925L203.854 125.62L208.28 128.188L214.522 124.513L210.076 121.925Z" fill="white"/>
<path d="M191.796 111.308L185.574 115.003L190.467 117.845L196.719 114.17L191.796 111.308Z" fill="white"/>
<path d="M215.476 125.051L209.254 128.746L215.111 132.146L221.363 128.472L215.476 125.051Z" fill="white"/>
<path d="M222.297 129.02L216.065 132.704L226.57 138.804L232.893 135.171L222.297 129.02Z" fill="white"/>
<path d="M165.751 105.025L159.428 108.659L167.609 113.409L173.861 109.735L165.751 105.025Z" fill="white"/>
<path d="M181.626 114.241L175.404 117.936L180.022 120.616L186.274 116.941L181.626 114.241Z" fill="white"/>
<path d="M193.075 120.91L186.853 124.605L192.71 128.005L198.962 124.33L193.075 120.91Z" fill="white"/>
<path d="M187.218 117.49L180.996 121.184L185.889 124.026L192.141 120.352L187.218 117.49Z" fill="white"/>
<path d="M199.906 124.858L193.684 128.553L198.302 131.233L204.544 127.558L199.906 124.858Z" fill="white"/>
<path d="M205.499 128.106L199.277 131.801L203.702 134.369L209.944 130.695L205.499 128.106Z" fill="white"/>
<path d="M174.805 110.283L168.583 113.978L174.429 117.378L180.682 113.704L174.805 110.283Z" fill="white"/>
<path d="M210.888 131.243L204.666 134.937L210.523 138.338L216.765 134.663L210.888 131.243Z" fill="white"/>
<path d="M211.487 138.896L219.435 143.514L225.768 139.88L217.709 135.201L211.487 138.896Z" fill="white"/>
<path d="M206.828 138.256L202.2 141.017L207.569 144.123L212.269 141.423L206.828 138.256Z" fill="white"/>
<path d="M208.686 144.773L213.253 147.412L217.963 144.722L213.304 142.022L208.686 144.773Z" fill="white"/>
<path d="M157.946 109.867L153.094 112.567L158.595 115.744L163.356 113.013L157.946 109.867Z" fill="white"/>
<path d="M164.381 113.612L159.702 116.393L165.579 119.793L170.329 117.063L164.381 113.612Z" fill="white"/>
<path d="M171.364 117.662L166.695 120.443L201.083 140.368L205.793 137.658L171.364 117.662Z" fill="white"/>
<path d="M329.785 179.831C340.341 179.831 348.898 175.6 348.898 170.381C348.898 165.162 340.341 160.931 329.785 160.931C319.23 160.931 310.673 165.162 310.673 170.381C310.673 175.6 319.23 179.831 329.785 179.831Z" fill="#68E1FD"/>
<path d="M348.908 145.209V170.909C348.908 170.909 334.698 184.104 310.673 171.122V145.209" fill="#68E1FD"/>
<path opacity="0.21" d="M333.987 170.127C328.709 174.187 322.335 176.116 315.799 176.806C320.154 178.913 324.948 179.956 329.785 179.851C339.935 179.851 348.228 175.933 348.837 170.98L348.898 170.929V145.209H348.542C345.325 154.405 341.935 163.956 333.987 170.127Z" fill="#200A52"/>
<path d="M313.535 154.405C313.535 154.405 310.368 149.563 307.384 152.375C304.4 155.186 307.009 164.859 315.768 165.793V169.63C315.768 169.63 304.776 168.138 303.284 158.262C301.792 148.386 308.876 146.863 312.419 149.584" fill="#68E1FD"/>
<path d="M329.785 154.76C340.341 154.76 348.898 150.529 348.898 145.31C348.898 140.092 340.341 135.861 329.785 135.861C319.23 135.861 310.673 140.092 310.673 145.31C310.673 150.529 319.23 154.76 329.785 154.76Z" fill="#663535"/>
<path d="M149.907 145.27C145.197 141.981 139.656 140.195 133.667 141.494C127.293 142.895 121.771 146.904 115.275 147.889C114.26 148.041 110.149 147.777 109.52 148.376C91.443 165.489 142 163.652 142 163.652C146.903 159.592 151.521 155.684 156.393 151.624C154.911 148.376 152.475 147.077 149.907 145.27Z" fill="#F8997C"/>
<path d="M126.085 170.117L124.288 221.74C124.217 223.699 127.262 223.699 127.333 221.74L129.13 170.117C129.232 168.158 126.197 168.168 126.085 170.117Z" fill="#F8997C"/>
<path d="M164.016 197.735C154.813 188.729 146.016 179.33 137.626 169.539C136.347 168.047 134.205 170.209 135.474 171.691C143.851 181.475 152.648 190.874 161.864 199.887C163.265 201.257 165.426 199.065 164.016 197.735Z" fill="#F8997C"/>
<path d="M115.57 165.347C108.424 178.833 101.695 192.525 95.3813 206.424C94.5794 208.19 97.1981 209.743 98.0101 207.956C104.323 194.058 111.053 180.365 118.198 166.879C119.112 165.154 116.493 163.611 115.57 165.347Z" fill="#F8997C"/>
<path d="M151.166 110.76C151.785 110.608 156.992 109.268 158.271 108.842C159.55 108.415 163.508 105.34 165.66 105.797C167.812 106.253 172.146 109.106 172.349 110.06C172.552 111.014 171.334 112.171 170.877 112.587C170.42 113.003 167.284 111.856 166.066 111.663C164.848 111.47 162.909 114.353 161.762 114.861C160.615 115.368 153.206 116.698 153.206 116.698" fill="#FCBF81"/>
<path d="M165.162 123.407C165.782 123.255 170.989 121.915 172.267 121.489C173.546 121.062 177.505 117.987 179.657 118.444C181.808 118.9 186.143 121.752 186.346 122.707C186.549 123.661 185.331 124.818 184.874 125.234C184.417 125.65 181.281 124.503 180.063 124.31C178.845 124.117 176.906 127 175.759 127.508C174.612 128.015 167.203 129.345 167.203 129.345" fill="#FCBF81"/>
<path d="M163.143 189.006C164.087 187.991 164.706 186.976 164.381 185.911C163.802 184.013 161.224 183.241 159.458 183.343C157.692 183.444 155.865 184.358 154.079 184.865C152.211 185.536 150.217 185.782 148.242 185.586C147.925 185.539 147.635 185.376 147.43 185.129C146.883 185.008 146.377 184.745 145.962 184.368C145.547 183.99 145.238 183.511 145.065 182.977L139.219 180.886C139.219 180.886 137.727 193.239 137.778 194.081C138.214 200.75 148.171 196.944 148.171 196.944C148.171 196.944 148.527 193.899 148.618 193.523C148.709 193.148 152.526 194.305 154.099 194.061C154.822 193.859 155.508 193.54 156.129 193.117C157.306 192.468 158.463 191.777 159.61 191.087C160.757 190.397 161.955 189.717 163.143 189.006Z" fill="#56403D"/>
<path d="M141.31 143.413C139.118 143.626 136.925 143.91 134.743 144.225C135.65 158.252 136.665 172.269 137.788 186.276C143.472 188.6 145.776 187.525 149.298 183.921C149.968 170.554 151.135 156.516 151.105 143.037C147.857 143.179 144.588 143.321 141.31 143.413Z" fill="#34323D"/>
<path d="M117.691 139.566C117.691 139.566 116.747 154.923 124.461 158.343C132.175 161.764 147.999 160.058 155.784 155.491C159.809 153.04 164.032 150.931 168.41 149.188C168.41 149.188 170.44 142.469 165.558 139.566C160.676 136.663 149.978 133.07 140.457 139.566" fill="#34323D"/>
<path d="M157.022 116.576C157.844 113.44 157.367 108.263 157.367 108.263C157.367 108.263 147.735 109.907 143.675 109.278C139.615 108.649 132.977 100.143 132.977 100.143L133.88 116.992C141.574 118.606 149.542 118.951 157.022 116.576Z" fill="#BA3E00"/>
<path d="M180.956 198.629C181.9 197.614 182.519 196.599 182.194 195.533C181.616 193.635 179.038 192.863 177.271 192.965C175.505 193.066 173.678 193.98 171.892 194.487C170.024 195.158 168.031 195.404 166.056 195.208C165.738 195.161 165.449 194.999 165.244 194.751C164.696 194.63 164.19 194.367 163.775 193.99C163.36 193.612 163.051 193.133 162.879 192.599L157.032 190.509C157.032 190.509 155.54 202.861 155.591 203.704C156.028 210.372 165.985 206.566 165.985 206.566C165.985 206.566 166.34 203.521 166.431 203.145C166.523 202.77 170.339 203.927 171.912 203.683C172.636 203.481 173.322 203.162 173.942 202.739C175.12 202.09 176.277 201.399 177.424 200.709C178.571 200.019 179.779 199.339 180.956 198.629Z" fill="#56403D"/>
<path d="M158.463 139.941C156.433 138.987 154.343 139.089 151.927 139.099C152.262 144.042 152.079 145.818 152.384 150.751L152.465 152.06C153.399 166.676 154.495 181.282 155.611 195.888C161.295 198.212 163.599 197.136 167.121 193.533C167.903 177.973 169.375 161.551 168.806 146.062C165.528 142.814 162.625 141.89 158.463 139.941Z" fill="#34323D"/>
<path d="M117.559 136.389C117.559 136.764 117.63 138.033 117.691 139.566C120.888 143.778 124.796 146.244 130.886 146.062C135.849 145.92 140.021 143.747 143.878 141.068C143.391 132.085 141.939 116.708 139.676 106.02C139.483 105.117 137.138 104.508 136.448 104.132C134.834 103.249 135.778 101.726 134.195 100.783C131.898 99.4451 129.507 98.2781 127.039 97.2909H126.978C123.03 97.23 116.219 100.275 115.813 105.563C115.194 113.683 116.087 118.606 116.717 126.716C116.95 129.984 117.285 133.212 117.559 136.389Z" fill="#E55600"/>
<path d="M131.312 81.8933C131.83 82.0253 136.215 92.1144 134.499 98.245C132.784 104.376 122.37 98.0724 119.751 93.4034C117.133 88.7344 121.467 79.2949 131.312 81.8933Z" fill="#FCBF81"/>
<path d="M131.16 83.3043C131.16 83.3043 131.16 86.6335 128.247 87.7094C125.334 88.7853 122.908 89.5059 123.07 90.8559C123.233 92.2058 128.338 90.663 128.359 93.7486C128.36 95.8271 128.08 97.8963 127.526 99.8995C127.201 101.412 118.462 96.7733 115.58 88.8766C112.697 80.9799 119.914 78.8789 120.269 78.8281C120.624 78.7774 121.284 76.6256 124.806 75.8542C128.328 75.0828 129.343 76.4632 129.343 76.4632C130.147 75.9788 131.087 75.7711 132.02 75.872C132.953 75.9728 133.828 76.3765 134.509 77.0214C137.768 79.6097 136.945 84.3396 133.251 86.2579L131.16 83.3043Z" fill="#34323D"/>
<path d="M171.354 120.91C166.817 121.854 157.601 123.356 154.343 121.925C151.815 120.819 143.381 102.731 134.215 100.793L132.977 114.597C132.977 114.597 145.938 131.04 151.927 132.735C156.281 133.963 168.004 132.319 173.151 130.532C173.373 127.225 172.755 123.914 171.354 120.91Z" fill="#E55600"/>
<path d="M142.64 125.163C141.98 124.31 134.469 115.804 134.469 115.804L143.492 134.288L142.64 125.163Z" fill="#34323D"/>
<path d="M155.682 151.36C152.863 155.29 148.868 158.222 144.274 159.734C137.839 161.693 128.48 160.749 125.1 154.04C118.95 141.799 124.725 126.472 118.229 114.566C117.479 113.061 116.419 111.732 115.12 110.665C113.82 109.598 112.31 108.817 110.687 108.375C106.475 107.451 103.582 110.618 102.06 114.343C99.3195 121.022 99.421 129.335 99.5529 136.45C99.5597 142.197 99.9769 147.936 100.801 153.624C100.801 153.624 104.74 177.486 135.433 171.082C140.749 170.118 145.854 168.228 150.516 165.499C152.905 164.122 154.996 162.283 156.667 160.089C158.565 157.328 157.296 154.09 155.682 151.36Z" fill="#68E1FD"/>
<defs>
<linearGradient id="paint0_linear_203_271" x1="300.695" y1="186.175" x2="322.396" y2="166.139" gradientUnits="userSpaceOnUse">
<stop stop-color="#E75D48"/>
<stop offset="1" stop-color="#502019"/>
</linearGradient>
<linearGradient id="paint1_linear_203_271" x1="124.532" y1="213.722" x2="150.678" y2="189.585" gradientUnits="userSpaceOnUse">
<stop stop-color="#E75D48"/>
<stop offset="1" stop-color="#502019"/>
</linearGradient>
<linearGradient id="paint2_linear_203_271" x1="177.779" y1="187.91" x2="206.544" y2="149.553" gradientUnits="userSpaceOnUse">
<stop stop-color="#E75D48"/>
<stop offset="1" stop-color="#502019"/>
</linearGradient>
</defs>
</svg>
