<svg width="239" height="194" viewBox="0 0 239 194" fill="none" xmlns="http://www.w3.org/2000/svg">
<path opacity="0.45" d="M119.405 193.582C185.079 193.582 238.318 188.47 238.318 182.164C238.318 175.858 185.079 170.745 119.405 170.745C53.7313 170.745 0.492188 175.858 0.492188 182.164C0.492188 188.47 53.7313 193.582 119.405 193.582Z" fill="#E6E6E6"/>
<path d="M225.087 119.19H215.039V180.689H225.087V119.19Z" fill="#C9C9C9"/>
<path d="M26.5916 119.19H16.5435V180.689H26.5916V119.19Z" fill="#C9C9C9"/>
<path d="M235.42 113.765H6.21069V119.199H235.42V113.765Z" fill="#C9C9C9"/>
<path d="M238.508 106.331H3.1228V113.765H238.508V106.331Z" fill="#E6E6E6"/>
<path d="M189.156 89.0571L186.784 104.132H202.611L198.971 89.0571H189.156Z" fill="#C9C9C9"/>
<path d="M205.422 101.485H183.17V106.331H205.422V101.485Z" fill="#E6E6E6"/>
<path d="M229.909 47.4454H157.528V94.4731H229.909V47.4454Z" fill="#E6E6E6"/>
<path d="M226.993 49.8861H160.124V87.5479H226.993V49.8861Z" fill="#24285B"/>
<path d="M194.555 92.1619C195.312 92.1619 195.926 91.5479 195.926 90.7906C195.926 90.0333 195.312 89.4194 194.555 89.4194C193.797 89.4194 193.183 90.0333 193.183 90.7906C193.183 91.5479 193.797 92.1619 194.555 92.1619Z" fill="#A5A5A5"/>
<path d="M112.928 89.0571L110.547 104.132H126.374L122.734 89.0571H112.928Z" fill="#C9C9C9"/>
<path d="M129.194 101.485H106.942V106.331H129.194V101.485Z" fill="#E6E6E6"/>
<path d="M153.672 47.4454H81.2913V94.4731H153.672V47.4454Z" fill="#E6E6E6"/>
<path d="M150.87 50H84V87.6618H150.87V50Z" fill="#24285B"/>
<path d="M118.318 92.1619C119.076 92.1619 119.69 91.5479 119.69 90.7906C119.69 90.0333 119.076 89.4194 118.318 89.4194C117.561 89.4194 116.947 90.0333 116.947 90.7906C116.947 91.5479 117.561 92.1619 118.318 92.1619Z" fill="#A5A5A5"/>
<path d="M36.6915 89.0571L34.3196 104.132H50.1378L46.5067 89.0571H36.6915Z" fill="#C9C9C9"/>
<path d="M52.9581 101.485H30.7056V106.331H52.9581V101.485Z" fill="#E6E6E6"/>
<path d="M77.4359 47.4454H5.05493V94.4731H77.4359V47.4454Z" fill="#E6E6E6"/>
<path d="M74.5205 49.8861H7.65088V87.5479H74.5205V49.8861Z" fill="#24285B"/>
<path d="M42.0821 92.1619C42.8395 92.1619 43.4534 91.5479 43.4534 90.7906C43.4534 90.0333 42.8395 89.4194 42.0821 89.4194C41.3247 89.4194 40.7107 90.0333 40.7107 90.7906C40.7107 91.5479 41.3247 92.1619 42.0821 92.1619Z" fill="#A5A5A5"/>
<path d="M191.786 0.426392H119.405V47.4541H191.786V0.426392Z" fill="#E6E6E6"/>
<path d="M188.871 2.86707H122.001V40.5289H188.871V2.86707Z" fill="#24285B"/>
<path d="M156.432 45.1428C157.19 45.1428 157.804 44.5289 157.804 43.7716C157.804 43.0143 157.19 42.4003 156.432 42.4003C155.675 42.4003 155.061 43.0143 155.061 43.7716C155.061 44.5289 155.675 45.1428 156.432 45.1428Z" fill="#A5A5A5"/>
<path d="M115.558 0.426392H43.1775V47.4541H115.558V0.426392Z" fill="#E6E6E6"/>
<path d="M112.643 2.86707H45.7734V40.5289H112.643V2.86707Z" fill="#24285B"/>
<path d="M80.2044 45.1428C80.9618 45.1428 81.5758 44.5289 81.5758 43.7716C81.5758 43.0143 80.9618 42.4003 80.2044 42.4003C79.447 42.4003 78.833 43.0143 78.833 43.7716C78.833 44.5289 79.447 45.1428 80.2044 45.1428Z" fill="#A5A5A5"/>
<path d="M162.565 65.8063C162.565 65.8063 151.266 66.203 146.117 86.2198C142.744 99.3199 98.8862 100.795 98.8862 100.795V105.564H145.979C149.11 105.592 152.202 104.87 154.997 103.46C157.792 102.05 160.209 99.9917 162.047 97.4571C162.662 96.5969 163.196 95.6817 163.643 94.7232C166.756 87.9532 173.303 69.463 162.565 65.8063Z" fill="#00BF9E"/>
<path opacity="0.08" d="M162.565 65.8063C162.565 65.8063 151.266 66.203 146.117 86.2198C142.744 99.3199 98.8862 100.795 98.8862 100.795V105.564H145.979C149.11 105.592 152.202 104.87 154.997 103.46C157.792 102.05 160.209 99.9917 162.047 97.4571C162.662 96.5969 163.196 95.6817 163.643 94.7232C166.756 87.9532 173.303 69.463 162.565 65.8063Z" fill="black"/>
<path d="M152.275 182.017C152.275 182.017 151.766 184.699 149.498 185.26C147.229 185.82 146.988 188.158 149.144 188.416C151.3 188.675 156.208 185.182 156.208 185.182L155.346 181L152.275 182.017Z" fill="#00BF9E"/>
<path d="M171.673 182.017C171.673 182.017 171.155 184.699 168.895 185.26C166.636 185.82 166.377 188.158 168.533 188.416C170.689 188.675 175.606 185.182 175.606 185.182L174.743 181L171.673 182.017Z" fill="#00BF9E"/>
<path d="M192.045 146.167H185.36V182.155H192.045V146.167Z" fill="#FFD200"/>
<path opacity="0.08" d="M192.045 146.167H185.36V182.155H192.045V146.167Z" fill="black"/>
<path opacity="0.08" d="M200.687 108.522L200.627 113.765L200.566 119.199H138.785L142.287 113.765L147.083 106.331H170.155L200.687 108.522Z" fill="black"/>
<path d="M173.76 126.072C173.76 126.072 166.386 77.0695 183.61 68.635C200.834 60.2006 228.598 68.0055 215.945 128.599L215.315 135.334C214.911 139.684 212.897 143.726 209.668 146.667C206.438 149.609 202.227 151.239 197.858 151.237H162.91C156.493 151.237 154.535 142.458 160.374 139.81C162.38 138.917 164.477 138.24 166.627 137.792C168.407 137.402 170.017 136.458 171.227 135.097C172.437 133.735 173.185 132.025 173.363 130.212L173.76 126.072Z" fill="#FFD200"/>
<path d="M164.609 41.9346C164.454 44.1836 164.602 46.4432 165.049 48.6528C165.12 48.9114 165.241 49.1534 165.405 49.365C165.57 49.5766 165.775 49.7536 166.008 49.8858C166.241 50.018 166.498 50.1029 166.764 50.1355C167.03 50.1681 167.3 50.1478 167.559 50.0758C168.404 49.8921 169.179 49.4693 169.79 48.8576C170.402 48.246 170.825 47.4714 171.009 46.6262L172.156 43.0644C172.312 42.3307 172.237 41.5666 171.94 40.8776C171.643 40.1887 171.14 39.6087 170.5 39.218C168.188 37.6139 164.661 39.4595 164.609 41.9346Z" fill="#F4A28C"/>
<path d="M171.466 44.0992L175.287 56.8199L168.119 58.424L168.223 48.5234L171.466 44.0992Z" fill="#F4A28C"/>
<path d="M164.557 44.4874L163.488 46.0656C163.425 46.1558 163.387 46.2602 163.375 46.3692C163.363 46.4782 163.379 46.5884 163.421 46.6896C163.464 46.7909 163.53 46.88 163.616 46.9487C163.701 47.0175 163.802 47.0637 163.91 47.0832L165.471 47.3506L164.557 44.4874Z" fill="#F4A28C"/>
<path opacity="0.31" d="M168.231 49.8429C169.21 49.4696 170.079 48.8556 170.758 48.0577C170.758 48.0577 171.112 50.645 168.171 52.7493L168.231 49.8429Z" fill="#CE8172"/>
<path d="M170.387 43.7025L170.741 43.8492C171.107 43.9455 171.485 43.9862 171.862 43.9699C172.123 43.9848 172.384 43.9467 172.63 43.8578C173.587 43.4179 173.605 41.857 173.674 40.9514C173.843 39.8588 173.669 38.7405 173.173 37.7519C171.888 35.6562 165.161 34.009 163.781 38.666C162.918 41.65 165.747 42.1761 167.912 42.1674C168.645 42.1674 169.137 42.8401 169.689 43.2541C169.91 43.4214 170.143 43.5714 170.387 43.7025Z" fill="#FFD200"/>
<path d="M168.594 44.2803C168.594 44.2803 168.593 42.7194 169.766 42.8229C170.939 42.9263 170.948 45.1773 169.361 45.4101L168.594 44.2803Z" fill="#F4A28C"/>
<path d="M166.774 58.7431L172.975 57.3287C172.975 57.3287 211.788 52.5509 206.794 89.1175C202.119 123.433 198.703 132.394 198.703 132.394L163.746 133.567C163.746 133.567 161.797 104.477 156.174 97.1725C150.55 89.8678 139.458 68.3504 166.774 58.7431Z" fill="#00BF9E"/>
<path d="M164.462 59.6228C164.462 59.6228 161.875 94.6542 172.932 110.195C172.932 110.195 172.311 73.3008 181.79 57.3719C181.79 57.3719 172.975 54.9312 164.462 59.6228Z" fill="white"/>
<path d="M162.22 119.518L145.832 136.266C142.539 139.634 140.347 143.924 139.547 148.566C138.748 153.208 139.379 157.984 141.356 162.259L150.55 182.164L155.294 180.999L150.731 163.113C149.824 159.574 150.09 155.836 151.49 152.461C152.89 149.086 155.347 146.257 158.494 144.398L177.288 133.351L162.22 119.518Z" fill="#24285B"/>
<path d="M162.22 119.518L200.687 121.794C200.687 121.794 200.627 135.429 196.047 138.517C193.511 140.242 184.084 143.614 176.209 146.279C173.108 147.334 170.551 149.573 169.096 152.508C167.642 155.443 167.408 158.834 168.447 161.94L174.795 180.982L169.404 182.405L157.743 159.612C156.084 156.358 155.578 152.638 156.308 149.06C157.038 145.482 158.961 142.257 161.762 139.914L173.363 130.212L162.22 119.518Z" fill="#24285B"/>
<path d="M185.188 71.6449C185.068 69.9527 185.425 68.2607 186.22 66.7618C187.014 65.2629 188.214 64.0172 189.682 63.1668C191.15 62.3165 192.827 61.8955 194.523 61.952C196.219 62.0085 197.864 62.5402 199.273 63.4864C202.045 65.3182 204.327 67.7991 205.923 70.7135C209.2 76.8539 210.925 90.4801 211.788 101.053C212.128 105.213 211.261 109.382 209.29 113.061C207.32 116.74 204.33 119.772 200.679 121.795L178.012 134.317L174.743 130.056L191.95 116.62C194.135 114.923 195.645 112.504 196.21 109.796C196.776 107.089 196.36 104.268 195.038 101.838C191.088 94.5162 186.025 83.2617 185.188 71.6449Z" fill="#00BF9E"/>
<path opacity="0.19" d="M185.188 71.6449C185.068 69.9527 185.425 68.2607 186.22 66.7618C187.014 65.2629 188.214 64.0172 189.682 63.1668C191.15 62.3165 192.827 61.8955 194.523 61.952C196.219 62.0085 197.864 62.5402 199.273 63.4864C202.045 65.3182 204.327 67.7991 205.923 70.7135C209.2 76.8539 210.925 90.4801 211.788 101.053C212.128 105.213 211.261 109.382 209.29 113.061C207.32 116.74 204.33 119.772 200.679 121.795L178.012 134.317L174.743 130.056L191.95 116.62C194.135 114.923 195.645 112.504 196.21 109.796C196.776 107.089 196.36 104.268 195.038 101.838C191.088 94.5162 186.025 83.2617 185.188 71.6449Z" fill="white"/>
<path d="M174.752 130.057C174.752 130.057 166.938 134.369 171.259 136.645C175.58 138.922 177.296 133.351 177.296 133.351L174.752 130.057Z" fill="#F4A28C"/>
<path opacity="0.27" d="M164.462 59.6228L157.493 79.3549L163.03 88.9105L160.978 98.1212L172.932 110.195C172.932 110.195 163.03 101.312 164.462 59.6228Z" fill="white"/>
<path d="M168.205 58.2602C168.205 57.2512 168.904 57.3978 169.87 57.1563C170.836 56.9148 171.836 55.8109 172.673 56.7337C174.295 58.5362 171.431 61.9082 171.431 61.9082H168.783C168.44 60.7209 168.246 59.4955 168.205 58.2602Z" fill="#24285B"/>
<path d="M168.783 61.9255H171.431C171.431 61.9255 171.681 82.4338 173.423 94.5594L172.975 110.195C169.371 105.036 167.098 99.0667 166.36 92.8173C166.36 92.8173 166.584 73.6112 168.783 61.9255Z" fill="#24285B"/>
<path d="M164.462 59.6228L167.697 61.9254L170.284 58.1653L172.992 61.5201L181.781 57.3719C181.781 57.3719 171.155 53.0684 164.462 59.6228Z" fill="#00BF9E"/>
<path opacity="0.55" d="M164.462 59.6228L167.697 61.9254L170.284 58.1653L172.992 61.5201L181.781 57.3719C181.781 57.3719 171.155 53.0684 164.462 59.6228Z" fill="white"/>
<path opacity="0.27" d="M181.79 57.3719L183.256 83.4687L176.425 87.5565L180.47 96.0513L172.975 110.195C172.975 110.195 172.475 73.0938 181.79 57.3719Z" fill="white"/>
<path d="M98.8861 101.855C98.8861 101.855 91.3392 100.493 92.0379 105.564H98.8861V101.855Z" fill="#F4A28C"/>
<path d="M185.361 176.42H192.045L202.818 188.434H175.606L185.361 176.42Z" fill="#FFD200"/>
<path opacity="0.33" d="M185.361 176.42H192.045L202.818 188.434H175.606L185.361 176.42Z" fill="white"/>
<path opacity="0.58" d="M48.1282 171.444C48.1282 171.444 41.3145 169.581 39.8396 163.242C39.8396 163.242 50.388 161.104 50.6899 172.005L48.1282 171.444Z" fill="#00BF9E"/>
<path opacity="0.73" d="M48.9647 170.763C48.9647 170.763 44.2037 163.242 48.3955 156.205C48.3955 156.205 56.4254 161.302 52.8546 170.78L48.9647 170.763Z" fill="#00BF9E"/>
<path d="M50.1895 170.771C50.1895 170.771 52.7079 162.82 60.3066 161.285C60.3066 161.285 61.7383 166.459 55.3903 170.771H50.1895Z" fill="#00BF9E"/>
<path d="M45.2561 170.59L46.6361 180.042L55.3301 180.077L56.6152 170.642L45.2561 170.59Z" fill="#24285B"/>
</svg>
