<svg width="351" height="263" viewBox="0 0 351 263" fill="none" xmlns="http://www.w3.org/2000/svg">
<path d="M146.779 212.223C139.847 216.081 131.248 216.554 123.175 216.423C115.751 216.3 108.257 215.8 101.237 213.311C94.2172 210.821 87.7764 206.113 84.5647 199.415C81.1249 192.183 78.5363 156.687 77.8694 146.114C77.4394 139.285 77.3078 132.21 79.8613 125.854C82.7922 118.622 88.9786 113.09 95.9722 109.583C102.966 106.077 110.767 104.613 118.515 103.71C128.097 102.579 137.978 102.36 147.227 105.112C156.476 107.865 165.075 113.967 169.059 122.733C171.227 127.52 171.946 132.841 172.113 138.093C172.56 151.646 169.542 165.024 165.567 177.902C162.215 188.72 159.275 202.852 149.772 210.207C148.828 210.955 147.827 211.629 146.779 212.223Z" fill="#24285B"/>
<path d="M192.524 95.1008C192.524 95.1008 203.519 117.973 193.462 145.947C183.406 173.922 205.335 188.098 162.864 191.85C120.393 195.602 192.524 95.1008 192.524 95.1008Z" fill="#00BF9E"/>
<path opacity="0.46" d="M192.524 95.1008C192.524 95.1008 203.519 117.973 193.462 145.947C183.406 173.922 205.335 188.098 162.864 191.85C120.393 195.602 192.524 95.1008 192.524 95.1008Z" fill="white"/>
<path d="M171.007 50.382C171.007 50.382 170.059 57.3954 167.857 61.7787C167.643 62.1984 167.349 62.5718 166.99 62.8775C166.632 63.1832 166.217 63.4152 165.768 63.5602C165.32 63.7052 164.847 63.7603 164.377 63.7223C163.908 63.6844 163.45 63.5542 163.031 63.3392C160.854 62.1995 158.248 60.0254 158.301 56.1856L157.581 49.6456C157.575 48.3221 157.98 47.0293 158.741 45.9458C159.502 44.8623 160.581 44.0414 161.828 43.5966C166.383 41.668 171.806 46.1127 171.007 50.382Z" fill="#F4A28C"/>
<path d="M158.257 51.4866L144.182 70.1158L155.019 77.1291L160.758 61.1738L158.257 51.4866Z" fill="#F4A28C"/>
<path d="M170.182 54.8004L171.516 57.9126C171.592 58.089 171.621 58.2815 171.602 58.4724C171.584 58.6632 171.517 58.8463 171.408 59.0045C171.3 59.1627 171.153 59.291 170.982 59.3775C170.81 59.464 170.62 59.506 170.428 59.4994L167.655 59.4029L170.182 54.8004Z" fill="#F4A28C"/>
<path opacity="0.31" d="M160.582 61.6209C160.582 61.6209 157.38 58.1142 156.985 55.9839C156.985 55.9839 153.545 64.6454 157.774 69.4057L160.582 61.6209Z" fill="#CE8172"/>
<path d="M161.951 53.5293C161.951 53.5293 162.495 50.8467 160.442 50.6012C158.389 50.3557 157.564 54.2306 160.223 55.2037L161.951 53.5293Z" fill="#F4A28C"/>
<path d="M155.721 47.1296L156.081 50.0752C156.081 50.0752 155.133 56.8343 157.836 61.691C160.539 66.5478 166.479 68.3274 168.796 64.2772C171.428 59.6309 167.664 59.4029 163.373 57.3252C159.082 55.2475 162.259 49.6632 162.259 49.6632C163.072 50.0153 163.959 50.1634 164.843 50.0947C165.727 50.0259 166.581 49.7423 167.33 49.2687L170.463 49.0583C171.174 49.0127 171.867 48.8143 172.495 48.4764C173.122 48.1386 173.669 47.6693 174.098 47.1008C174.528 46.5322 174.829 45.8778 174.981 45.1822C175.134 44.4866 175.134 43.7664 174.982 43.0706C174.836 42.2079 174.521 41.3826 174.054 40.6423C173.587 39.902 172.978 39.2614 172.262 38.7574C168.059 36.031 154.44 38.284 155.721 47.1296Z" fill="#24285B"/>
<path d="M159.275 49.3651C159.275 49.3651 156.897 46.1214 154.624 48.1465C152.351 50.1716 155.063 53.6695 158.134 53.1611C158.044 51.7998 158.449 50.4518 159.275 49.3651Z" fill="#F4A28C"/>
<path d="M163.943 68.5203L151.228 66.3286C151.228 66.3286 108.915 66.39 101.509 80.8637C94.103 95.3375 95.665 149.244 120.13 193.454L170.235 194.901C170.235 194.901 167.453 162.411 176.79 144.72C186.126 127.029 215.163 89.42 163.943 68.5203Z" fill="#00BF9E"/>
<path opacity="0.08" d="M124.429 86.0536C124.429 86.0536 138.32 98.2217 135.53 111.652C135.082 113.826 134.652 116.448 134.143 119.323C132.334 130.464 133.01 141.867 136.125 152.716C139.239 163.566 144.714 173.594 152.158 182.084L160.933 192.078L120.156 193.454L116.646 186.625L97.613 155.065L124.429 86.0536Z" fill="black"/>
<path d="M100.807 82.1963C91.5232 95.2498 83.2572 124.075 90.4351 164.682C91.5091 170.69 94.5722 176.163 99.1329 180.223C103.693 184.283 109.487 186.695 115.584 187.072L153.87 189.492V177.017L124.772 172.809C123.18 172.579 121.657 172.008 120.307 171.135C118.956 170.262 117.811 169.108 116.949 167.752C116.087 166.395 115.529 164.869 115.314 163.276C115.098 161.684 115.229 160.064 115.698 158.528C120.823 141.669 128.764 111.126 126.711 89.3499C125.482 76.1297 108.503 71.3694 100.807 82.1963Z" fill="#00BF9E"/>
<path opacity="0.46" d="M100.807 82.1963C91.5232 95.2498 83.2572 124.075 90.4351 164.682C91.5091 170.69 94.5722 176.163 99.1329 180.223C103.693 184.283 109.487 186.695 115.584 187.072L153.87 189.492V177.017L124.772 172.809C123.18 172.579 121.657 172.008 120.307 171.135C118.956 170.262 117.811 169.108 116.949 167.752C116.087 166.395 115.529 164.869 115.314 163.276C115.098 161.684 115.229 160.064 115.698 158.528C120.823 141.669 128.764 111.126 126.711 89.3499C125.482 76.1297 108.503 71.3694 100.807 82.1963Z" fill="white"/>
<path d="M154.703 179.331C154.703 179.331 171.376 178.91 169.033 187.607C166.69 196.303 154.703 189.491 154.703 189.491V179.331Z" fill="#F4A28C"/>
<path d="M227.869 193.892L237.399 140.091H169.831L163.97 185.959L132.994 186.388V193.892H227.869Z" fill="#FFD200"/>
<path d="M200.965 172.651C204.701 172.651 207.731 169.625 207.731 165.892C207.731 162.159 204.701 159.133 200.965 159.133C197.228 159.133 194.199 162.159 194.199 165.892C194.199 169.625 197.228 172.651 200.965 172.651Z" fill="white"/>
<path d="M58.5292 225.338L292.462 225.338V192.63L58.5292 192.63V225.338Z" fill="#E6E6E6"/>
<path opacity="0.09" d="M124.158 192.621H58.5381V225.33H124.158V192.621Z" fill="black"/>
<path opacity="0.58" d="M258.503 185.117C258.503 185.117 251.571 183.223 250.061 176.78C250.061 176.78 260.802 174.614 261.109 185.687L258.503 185.117Z" fill="#00BF9E"/>
<path opacity="0.73" d="M259.354 184.433C259.354 184.433 254.51 176.78 258.775 169.635C258.775 169.635 266.935 174.816 263.311 184.451L259.354 184.433Z" fill="#00BF9E"/>
<path d="M260.617 184.433C260.617 184.433 263.18 176.359 270.911 174.834C270.911 174.834 272.358 180.094 265.9 184.477L260.617 184.433Z" fill="#00BF9E"/>
<path d="M255.572 184.258L256.976 193.857L265.83 193.892L267.128 184.302L255.572 184.258Z" fill="#24285B"/>
<path d="M209.24 92.0763V119.534H225.447V131.938L234.801 119.534H261.354V92.0763H209.24Z" fill="#E6E6E6"/>
<path d="M237.399 59.4994H197.701V84.9139H203.264V95.9599L209.556 84.9139H237.399V59.4994Z" fill="#E6E6E6"/>
<path d="M271.033 56.7642H245.384V78.6984H262.864L267.199 84.2126V78.6984H271.033V56.7642Z" fill="#E6E6E6"/>
</svg>
