<svg width="297" height="230" viewBox="0 0 297 230" fill="none" xmlns="http://www.w3.org/2000/svg">
<mask id="mask0_195_186" style="mask-type:luminance" maskUnits="userSpaceOnUse" x="0" y="0" width="297" height="230">
<path d="M110.085 11.9825C41.7349 23.7869 -6.63999 86.4023 0.881161 155.351C2.84011 172.87 7.91511 188.298 18.1362 198.245C59.0305 237.83 229.256 245.818 271.419 184.918C313.582 124.018 301.524 16.7124 242.38 3.57826C213.25 -2.90759 158.298 3.65946 110.085 11.9825Z" fill="white"/>
</mask>
<g mask="url(#mask0_195_186)">
<path d="M257.828 207.705C257.828 207.705 258.316 222.768 247.435 226.31C236.554 229.852 199.334 235.77 180.719 224.544C162.104 213.318 173.512 198.54 189.377 199.727C205.241 200.915 257.828 207.705 257.828 207.705Z" fill="#FFD200"/>
<path d="M241.923 87.4681C241.923 87.4681 238.625 67.9903 252.804 63.5446C266.984 59.0989 287.365 63.8288 285.599 85.1032C283.833 106.378 257.828 207.705 257.828 207.705L228.282 205.675C228.282 205.675 251.424 131.783 241.923 87.4681Z" fill="#FFD200"/>
<path d="M211.534 114L240.736 120.892L231.215 161.868C230.697 164.065 229.738 166.134 228.396 167.949C227.054 169.764 225.357 171.287 223.408 172.427C221.459 173.566 219.299 174.297 217.059 174.576C214.819 174.854 212.546 174.675 210.377 174.048L156.988 158.66C156.988 158.66 149.7 165.765 143.397 162.994C137.094 160.223 149.487 150.195 155.577 150.388C161.667 150.581 210.387 155.118 210.387 155.118L211.534 114Z" fill="#F4A28C"/>
<path opacity="0.08" d="M211.534 114L240.736 120.892L231.215 161.868C230.697 164.065 229.738 166.134 228.396 167.949C227.054 169.764 225.357 171.287 223.408 172.427C221.459 173.566 219.299 174.297 217.059 174.576C214.819 174.854 212.546 174.675 210.377 174.048L156.988 158.66C156.988 158.66 149.7 165.765 143.397 162.994C137.094 160.223 149.487 150.195 155.577 150.388C161.667 150.581 210.387 155.118 210.387 155.118L211.534 114Z" fill="black"/>
<path d="M210.935 48.0049L218.081 73.1972L205.18 79.0943L205.728 57.353L210.935 48.0049Z" fill="#F4A28C"/>
<path opacity="0.31" d="M205.556 61.5956C207.483 60.8553 209.152 59.5675 210.357 57.8909C210.357 57.8909 210.763 63.2196 205.566 69.1472L205.556 61.5956Z" fill="#CE8172"/>
<path d="M194.594 48.827C194.594 48.827 195.385 57.6879 197.892 63.24C198.134 63.7761 198.48 64.259 198.91 64.6608C199.339 65.0626 199.844 65.3753 200.395 65.581C200.946 65.7867 201.533 65.8813 202.121 65.8593C202.708 65.8372 203.286 65.699 203.82 65.4527C206.601 64.1535 209.971 61.5957 210.123 56.7947L211.382 48.6747C211.382 48.6747 212.001 43.5997 206.429 40.8795C200.856 38.1593 193.843 43.4475 194.594 48.827Z" fill="#F4A28C"/>
<path d="M195.386 54.3892L193.538 58.1751C193.439 58.3908 193.395 58.6278 193.41 58.8648C193.425 59.1019 193.498 59.3314 193.624 59.5328C193.75 59.7342 193.924 59.9011 194.131 60.0185C194.337 60.1358 194.57 60.2 194.807 60.2051H198.268L195.386 54.3892Z" fill="#F4A28C"/>
<path opacity="0.08" d="M245.811 89.5286C245.811 89.5286 255.544 93.0506 255.819 114C256.093 134.95 243.111 171.855 243.304 191.049C243.496 210.243 219.816 232.938 184.17 212.13C148.523 191.323 213.676 184.208 213.676 184.208L245.811 89.5286Z" fill="black"/>
<path d="M236.361 172.657C236.361 172.657 240.695 199.138 228.241 205.634C215.787 212.13 184.129 212.13 184.129 212.13L188.656 246.701H142.839L141.662 179.346L191.843 172.657H236.361Z" fill="#24285B"/>
<path d="M169.209 165.978H27.9917V179.346H169.209V165.978Z" fill="#E6E6E6"/>
<path d="M71.7077 103.718L43.9373 165.978H86.4861V160.436L56.3507 157.483L75.8489 107.849L71.7077 103.718Z" fill="#E6E6E6"/>
<path d="M88.719 146.379L82.2941 146.338L60.4614 77.4602L65.3233 72.5984L88.719 146.379Z" fill="#24285B"/>
<path d="M149.304 161.025H104.797V165.978H149.304V161.025Z" fill="#FFD200"/>
<path d="M194.543 44.4828C194.543 44.4828 192.097 53.9325 205.241 54.6328L213.737 57.8504C213.737 57.8504 217.208 50.0552 215.29 43.2547C213.371 36.4542 197.131 30.5976 194.543 44.4828Z" fill="#24285B"/>
<path d="M212.722 39.0932C215.682 39.0932 218.081 36.6938 218.081 33.734C218.081 30.7742 215.682 28.3748 212.722 28.3748C209.762 28.3748 207.363 30.7742 207.363 33.734C207.363 36.6938 209.762 39.0932 212.722 39.0932Z" fill="#24285B"/>
<path d="M209.159 54.3892C209.159 54.3892 209.372 66.0921 200.714 67.2797" stroke="#24285B" stroke-width="1.015" stroke-miterlimit="10"/>
<path d="M199.669 69.2184C200.74 69.2184 201.608 68.3504 201.608 67.2797C201.608 66.209 200.74 65.3411 199.669 65.3411C198.598 65.3411 197.73 66.209 197.73 67.2797C197.73 68.3504 198.598 69.2184 199.669 69.2184Z" fill="#24285B"/>
<path d="M205.241 54.6733C205.241 54.6733 204.703 51.2934 207.271 51.1005C209.839 50.9077 210.651 55.7898 207.271 56.8657L205.241 54.6733Z" fill="#F4A28C"/>
<path d="M205.18 79.0943L218.081 73.1971C218.081 73.1971 239.112 72.9941 245.811 89.5285C252.51 106.063 236.361 172.657 236.361 172.657H191.843C190.847 157.322 188.874 142.066 185.936 126.982C181.216 103.322 185.428 94.6441 205.18 79.0943Z" fill="#00BF9E"/>
<path opacity="0.08" d="M217.005 85.6816C213.267 88.4259 210.225 92.009 208.124 96.1429C206.022 100.277 204.92 104.846 204.906 109.483C204.967 125.277 208.479 155.016 197.7 154.834L190.737 159.614L191.813 172.657H221.248C221.248 172.657 234.321 171.703 236.473 135.904C238.625 100.105 217.005 85.6816 217.005 85.6816Z" fill="black"/>
<path d="M212.722 105.535L241.923 112.427L232.362 153.392C231.844 155.59 230.885 157.659 229.543 159.474C228.201 161.289 226.504 162.812 224.555 163.951C222.606 165.091 220.446 165.822 218.206 166.1C215.966 166.379 213.693 166.199 211.524 165.572L158.135 150.195C158.135 150.195 150.847 157.3 144.554 154.529C138.261 151.758 150.644 141.72 156.734 141.923C162.824 142.126 211.544 146.653 211.544 146.653L212.722 105.535Z" fill="#F4A28C"/>
<path d="M161.515 140.644H157.526V152.905H161.515V140.644Z" fill="#FFD200"/>
<path d="M202.176 81.5202L201.607 73.2175L218.081 69.1575L220.212 73.3088C220.212 73.3088 216.64 80.9518 202.176 81.5202Z" fill="#00BF9E"/>
<path d="M154.126 179.346H41.5725V246.701H154.126V179.346Z" fill="#C7C9C9"/>
<path d="M212.722 105.535C212.722 105.535 213.392 83.0832 222.293 80.8908C231.195 78.6984 248.277 80.0483 241.923 112.427L212.722 105.535Z" fill="#00BF9E"/>
<path opacity="0.44" d="M212.722 105.535C212.722 105.535 213.392 83.0832 222.293 80.8908C231.195 78.6984 248.277 80.0483 241.923 112.427L212.722 105.535Z" fill="white"/>
</g>
</svg>
