<svg width="235" height="189" viewBox="0 0 235 189" fill="none" xmlns="http://www.w3.org/2000/svg">
<path d="M88.7795 175.223C81.8472 179.081 73.2477 179.554 65.1747 179.423C57.7511 179.3 50.2572 178.8 43.2372 176.311C36.2172 173.821 29.7764 169.113 26.5647 162.415C23.1249 155.183 20.5363 119.687 19.8694 109.114C19.4394 102.285 19.3078 95.2101 21.8613 88.8543C24.7922 81.6218 30.9786 76.09 37.9722 72.5833C44.9659 69.0767 52.7669 67.6126 60.5152 66.7097C70.0975 65.5788 79.9782 65.3596 89.227 68.1123C98.4759 70.8651 107.075 76.9667 111.059 85.7333C113.227 90.5199 113.946 95.8413 114.113 101.093C114.56 114.646 111.542 128.024 107.567 140.902C104.215 151.72 101.275 165.852 91.7718 173.207C90.8277 173.955 89.8273 174.629 88.7795 175.223Z" fill="#24285B"/>
<path d="M134.524 58.1008C134.524 58.1008 145.519 80.9731 135.462 108.947C125.406 136.922 147.335 151.098 104.864 154.85C62.393 158.602 134.524 58.1008 134.524 58.1008Z" fill="#00BF9E"/>
<path opacity="0.46" d="M134.524 58.1008C134.524 58.1008 145.519 80.9731 135.462 108.947C125.406 136.922 147.335 151.098 104.864 154.85C62.393 158.602 134.524 58.1008 134.524 58.1008Z" fill="white"/>
<path d="M113.007 13.382C113.007 13.382 112.059 20.3954 109.857 24.7787C109.643 25.1984 109.349 25.5718 108.99 25.8775C108.632 26.1832 108.217 26.4152 107.768 26.5602C107.32 26.7052 106.847 26.7603 106.377 26.7223C105.908 26.6844 105.45 26.5542 105.031 26.3392C102.854 25.1995 100.248 23.0254 100.301 19.1856L99.5814 12.6456C99.5752 11.3221 99.9805 10.0293 100.741 8.94579C101.502 7.86225 102.581 7.04141 103.828 6.59662C108.383 4.66795 113.806 9.11266 113.007 13.382Z" fill="#F4A28C"/>
<path d="M100.257 14.4866L86.1821 33.1158L97.0193 40.1291L102.758 24.1738L100.257 14.4866Z" fill="#F4A28C"/>
<path d="M112.182 17.8004L113.516 20.9126C113.592 21.089 113.621 21.2815 113.602 21.4723C113.584 21.6632 113.517 21.8462 113.408 22.0045C113.3 22.1627 113.153 22.291 112.982 22.3775C112.81 22.464 112.62 22.5059 112.428 22.4994L109.655 22.4029L112.182 17.8004Z" fill="#F4A28C"/>
<path opacity="0.31" d="M102.582 24.6209C102.582 24.6209 99.3796 21.1142 98.9847 18.9839C98.9847 18.9839 95.5449 27.6454 99.7744 32.4057L102.582 24.6209Z" fill="#CE8172"/>
<path d="M103.951 16.5293C103.951 16.5293 104.495 13.8467 102.442 13.6012C100.389 13.3557 99.5638 17.2306 102.223 18.2037L103.951 16.5293Z" fill="#F4A28C"/>
<path d="M97.7211 10.1296L98.0809 13.0752C98.0809 13.0752 97.1332 19.8343 99.8359 24.691C102.539 29.5478 108.479 31.3274 110.796 27.2772C113.428 22.6309 109.664 22.4029 105.373 20.3252C101.082 18.2475 104.259 12.6632 104.259 12.6632C105.072 13.0153 105.959 13.1634 106.843 13.0947C107.727 13.0259 108.581 12.7423 109.33 12.2687L112.463 12.0583C113.174 12.0127 113.867 11.8143 114.495 11.4764C115.122 11.1386 115.669 10.6693 116.098 10.1008C116.528 9.53222 116.829 8.87777 116.981 8.1822C117.134 7.48663 117.134 6.76635 116.982 6.07063C116.836 5.20788 116.521 4.38256 116.054 3.64227C115.587 2.90198 114.978 2.26138 114.262 1.75742C110.059 -0.969009 96.44 1.28402 97.7211 10.1296Z" fill="#24285B"/>
<path d="M101.275 12.3651C101.275 12.3651 98.8969 9.12145 96.6242 11.1465C94.3515 13.1716 97.063 16.6695 100.134 16.1611C100.044 14.7998 100.449 13.4519 101.275 12.3651Z" fill="#F4A28C"/>
<path d="M105.943 31.5203L93.2283 29.3286C93.2283 29.3286 50.9152 29.39 43.5091 43.8637C36.103 58.3375 37.665 112.244 62.1297 156.454L112.235 157.901C112.235 157.901 109.453 125.411 118.79 107.72C128.126 90.029 157.163 52.42 105.943 31.5203Z" fill="#00BF9E"/>
<path opacity="0.08" d="M66.4294 49.0536C66.4294 49.0536 80.3203 61.2217 77.5298 74.6523C77.0823 76.8264 76.6523 79.4476 76.1434 82.3231C74.3339 93.4641 75.0105 104.867 78.1248 115.716C81.239 126.566 86.7141 136.594 94.1584 145.084L102.933 155.078L62.156 156.454L58.646 149.625L39.613 118.065L66.4294 49.0536Z" fill="black"/>
<path d="M42.8072 45.1962C33.5232 58.2498 25.2572 87.0746 32.4351 127.682C33.5091 133.69 36.5722 139.163 41.1329 143.223C45.6935 147.283 51.4872 149.695 57.5843 150.072L95.8696 152.491V140.017L66.7717 135.809C65.18 135.579 63.6568 135.008 62.3066 134.135C60.9564 133.262 59.8111 132.108 58.9493 130.752C58.0874 129.395 57.5294 127.869 57.3135 126.276C57.0976 124.684 57.2289 123.064 57.6984 121.528C62.823 104.669 70.7643 74.1262 68.711 52.3498C67.4825 39.1297 50.5029 34.3694 42.8072 45.1962Z" fill="#00BF9E"/>
<path opacity="0.46" d="M42.8072 45.1962C33.5232 58.2498 25.2572 87.0746 32.4351 127.682C33.5091 133.69 36.5722 139.163 41.1329 143.223C45.6935 147.283 51.4872 149.695 57.5843 150.072L95.8696 152.491V140.017L66.7717 135.809C65.18 135.579 63.6568 135.008 62.3066 134.135C60.9564 133.262 59.8111 132.108 58.9493 130.752C58.0874 129.395 57.5294 127.869 57.3135 126.276C57.0976 124.684 57.2289 123.064 57.6984 121.528C62.823 104.669 70.7643 74.1262 68.711 52.3498C67.4825 39.1297 50.5029 34.3694 42.8072 45.1962Z" fill="white"/>
<path d="M96.7034 142.331C96.7034 142.331 113.376 141.91 111.033 150.607C108.69 159.303 96.7034 152.491 96.7034 152.491V142.331Z" fill="#F4A28C"/>
<path d="M169.869 156.892L179.399 103.091H111.831L105.97 148.958L74.9939 149.388V156.892H169.869Z" fill="#FFD200"/>
<path d="M142.965 135.651C146.701 135.651 149.731 132.625 149.731 128.892C149.731 125.159 146.701 122.133 142.965 122.133C139.228 122.133 136.199 125.159 136.199 128.892C136.199 132.625 139.228 135.651 142.965 135.651Z" fill="white"/>
<path d="M0.529205 188.338L234.462 188.338V155.63L0.529205 155.63V188.338Z" fill="#E6E6E6"/>
<path opacity="0.09" d="M66.1575 155.621H0.538086V188.33H66.1575V155.621Z" fill="black"/>
<path opacity="0.58" d="M200.503 148.117C200.503 148.117 193.571 146.223 192.061 139.78C192.061 139.78 202.802 137.614 203.109 148.687L200.503 148.117Z" fill="#00BF9E"/>
<path opacity="0.73" d="M201.354 147.433C201.354 147.433 196.51 139.78 200.775 132.635C200.775 132.635 208.935 137.816 205.311 147.451L201.354 147.433Z" fill="#00BF9E"/>
<path d="M202.617 147.433C202.617 147.433 205.18 139.359 212.911 137.834C212.911 137.834 214.358 143.094 207.9 147.477L202.617 147.433Z" fill="#00BF9E"/>
<path d="M197.572 147.258L198.976 156.857L207.83 156.892L209.128 147.302L197.572 147.258Z" fill="#24285B"/>
<path d="M151.24 55.0763V82.5335H167.447V94.9383L176.801 82.5335H203.354V55.0763H151.24Z" fill="#E6E6E6"/>
<path d="M179.399 22.4994H139.701V47.914H145.264V58.96L151.556 47.914H179.399V22.4994Z" fill="#E6E6E6"/>
<path d="M213.033 19.7642H187.384V41.6984H204.864L209.199 47.2126V41.6984H213.033V19.7642Z" fill="#E6E6E6"/>
</svg>
