<svg width="118" height="107" viewBox="0 0 118 107" fill="none" xmlns="http://www.w3.org/2000/svg">
<circle cx="59" cy="59" r="48" fill="#00BF9E"/>
<path d="M57.8162 77.756C51.4982 77.756 47.2322 75.434 44.4242 72.194L48.2042 67.172C50.5802 69.494 53.4422 71.33 57.0602 71.33C61.1642 71.33 63.9182 69.278 63.9182 65.714C63.9182 61.772 61.5962 59.342 52.9022 59.342V53.618C60.2462 53.618 62.6222 51.134 62.6222 47.57C62.6222 44.438 60.6782 42.548 57.2762 42.548C54.4142 42.548 52.0922 43.898 49.7162 46.112L45.6662 41.198C49.1222 38.228 52.9562 36.338 57.6002 36.338C65.3222 36.338 70.5602 40.118 70.5602 46.976C70.5602 51.242 68.1842 54.428 63.9182 56.048V56.318C68.4542 57.614 71.9102 60.908 71.9102 66.2C71.9102 73.544 65.4842 77.756 57.8162 77.756Z" fill="white"/>
</svg>
