<svg width="1920" height="361" viewBox="0 0 1920 361" fill="none" xmlns="http://www.w3.org/2000/svg">
<g clip-path="url(#clip0_117_1363)" filter="url(#filter0_d_117_1363)">
<path d="M0 147L80 122.5C160 98.0001 320 49.0001 480 81.7001C640 114 800 229 960 277.7C1120 327 1280 310 1440 277.7C1600 245 1760 196 1920 179.7C2080 163 2240 180 2400 163.3C2560 147 2720 98.0001 2880 106.2C3040 114 3200 180 3360 212.3C3520 245 3680 245 3840 261.3C4000 278 4160 310 4320 334.8C4480 359 4640 376 4800 318.5C4960 261 5120 131 5280 81.7001C5440 33.0001 5600 65.0001 5760 138.8C5920 212 6080 327 6240 375.7C6400 425 6560 408 6720 359.3C6880 310 7040 229 7200 179.7C7360 131 7520 114 7680 114.3C7840 114 8000 131 8160 155.2C8320 180 8480 212 8640 212.3C8800 212 8960 180 9120 138.8C9280 98.0001 9440 49.0001 9600 65.3001C9760 82.0001 9920 163 10080 212.3C10240 261 10400 278 10560 236.8C10720 196 10880 98.0001 11040 106.2C11200 114 11360 229 11440 285.8L11520 343V490H11440C11360 490 11200 490 11040 490C10880 490 10720 490 10560 490C10400 490 10240 490 10080 490C9920 490 9760 490 9600 490C9440 490 9280 490 9120 490C8960 490 8800 490 8640 490C8480 490 8320 490 8160 490C8000 490 7840 490 7680 490C7520 490 7360 490 7200 490C7040 490 6880 490 6720 490C6560 490 6400 490 6240 490C6080 490 5920 490 5760 490C5600 490 5440 490 5280 490C5120 490 4960 490 4800 490C4640 490 4480 490 4320 490C4160 490 4000 490 3840 490C3680 490 3520 490 3360 490C3200 490 3040 490 2880 490C2720 490 2560 490 2400 490C2240 490 2080 490 1920 490C1760 490 1600 490 1440 490C1280 490 1120 490 960 490C800 490 640 490 480 490C320 490 160 490 80 490H0V147Z" fill="url(#paint0_linear_117_1363)"/>
</g>
<defs>
<filter id="filter0_d_117_1363" x="-4" y="0" width="1928" height="498" filterUnits="userSpaceOnUse" color-interpolation-filters="sRGB">
<feFlood flood-opacity="0" result="BackgroundImageFix"/>
<feColorMatrix in="SourceAlpha" type="matrix" values="0 0 0 0 0 0 0 0 0 0 0 0 0 0 0 0 0 0 127 0" result="hardAlpha"/>
<feOffset dy="4"/>
<feGaussianBlur stdDeviation="2"/>
<feComposite in2="hardAlpha" operator="out"/>
<feColorMatrix type="matrix" values="0 0 0 0 0 0 0 0 0 0 0 0 0 0 0 0 0 0 0.25 0"/>
<feBlend mode="normal" in2="BackgroundImageFix" result="effect1_dropShadow_117_1363"/>
<feBlend mode="normal" in="SourceGraphic" in2="effect1_dropShadow_117_1363" result="shape"/>
</filter>
<linearGradient id="paint0_linear_117_1363" x1="0" y1="490" x2="0" y2="58.4526" gradientUnits="userSpaceOnUse">
<stop stop-color="#0F6D74"/>
<stop offset="1" stop-color="#A19E89"/>
</linearGradient>
<clipPath id="clip0_117_1363">
<rect width="1920" height="490" fill="white"/>
</clipPath>
</defs>
</svg>
